<svg xmlns="http://www.w3.org/2000/svg" viewBox="0 0 64 64" role="img" aria-label="apple">
  <rect width="64" height="64" fill="transparent"/>
  <path d="M32 14c-4-5-12-5-16 2-3 5-2 10 1 14-4 4-5 10-3 16 2 8 8 13 18 13s16-5 18-13c2-6 1-12-3-16 3-4 4-9 1-14-4-7-12-7-16-2Z" fill="#ef5560" stroke="#111827" stroke-width="3"/>
  <path d="M32 19c-3-4-9-3-11 1-2 3-1 6 1 9-2 3-3 7-2 11 2 5 6 9 12 9s10-4 12-9c1-4 0-8-2-11 2-3 3-6 1-9-2-4-8-5-11-1Z" fill="#f96c74"/>
  <ellipse cx="25" cy="31" rx="5" ry="3" fill="#ffc4c8"/>
  <rect x="31" y="6" width="3" height="9" rx="1" fill="#64452f"/>
  <path d="M33 10c4-4 8-5 12-3-4 1-7 4-9 7Z" fill="#8fc85f" stroke="#111827" stroke-width="2" stroke-linejoin="round"/>
</svg>
