<svg xmlns="http://www.w3.org/2000/svg" viewBox="0 0 64 64" shape-rendering="crispEdges" role="img" aria-label="apple">
  <rect width="64" height="64" fill="transparent"/>
  <path d="M32 14c-4-5-12-4-15 2-2 4-1 8 1 11-3 4-4 9-2 15 2 8 8 13 16 13s14-5 16-13c2-6 1-11-2-15 2-3 3-7 1-11-3-6-11-7-15-2Z" fill="#c83f45"/>
  <path d="M32 18c-3-4-9-3-11 1-1 3 0 6 2 8-2 3-2 7-1 11 2 6 6 10 10 10 5 0 9-4 10-10 2-7 0-15-6-20-1-1-2-1-4 0Z" fill="#e2565c"/>
  <ellipse cx="27" cy="28" rx="4" ry="3" fill="#f3a3a6" opacity="0.75"/>
  <rect x="30" y="8" width="3" height="8" fill="#6d4a33"/>
  <path d="M33 12c4-4 8-4 12-2-4 1-7 3-9 6Z" fill="#5f924a"/>
</svg>
