<svg xmlns="http://www.w3.org/2000/svg" viewBox="0 0 64 64" shape-rendering="crispEdges" role="img" aria-label="apple">
  <rect width="64" height="64" fill="transparent"/>
  <path d="M32 14c-4-5-12-5-16 1-3 5-2 9 1 13-4 4-6 10-4 17 2 8 9 13 19 13s17-5 19-13c2-7 0-13-4-17 3-4 4-8 1-13-4-6-12-6-16-1Z" fill="#b63f46"/>
  <path d="M32 18c-3-4-9-4-12 1-2 3-1 7 1 9-3 4-4 8-2 13 2 6 7 10 13 10s11-4 13-10c2-5 1-9-2-13 2-2 3-6 1-9-3-5-9-5-12-1Z" fill="#e45b62"/>
  <path d="M29 15c2-3 5-5 8-5-2 1-4 4-4 6Z" fill="#ffd2b8" opacity="0.7"/>
  <ellipse cx="26" cy="30" rx="4.5" ry="3.2" fill="#ffb8ba" opacity="0.72"/>
  <rect x="31" y="7" width="3" height="8" fill="#6c4a33"/>
  <path d="M33 11c4-4 8-5 12-3-4 1-7 4-9 7Z" fill="#5f9148"/>
</svg>
