<svg xmlns="http://www.w3.org/2000/svg" viewBox="0 0 64 64" role="img" aria-label="lemon">
  <rect width="64" height="64" fill="transparent"/>
  <path d="M9 34C9 23 19 15 32 15s23 8 23 19-10 19-23 19S9 45 9 34Z" fill="#ffd84f" stroke="#111827" stroke-width="3"/>
  <path d="M9 34l5-3v6Z" fill="#e5ba3d" stroke="#111827" stroke-width="2" stroke-linejoin="round"/>
  <path d="M55 34l-5-3v6Z" fill="#e5ba3d" stroke="#111827" stroke-width="2" stroke-linejoin="round"/>
  <path d="M15 34c0-8 8-14 17-14s17 6 17 14-8 14-17 14-17-6-17-14Z" fill="#ffe466"/>
  <path d="M21 38c4-2 11-2 16 0" fill="none" stroke="#f0c347" stroke-width="2" stroke-linecap="round"/>
  <ellipse cx="24" cy="28" rx="5" ry="3" fill="#fff3b8"/>
</svg>
