<svg xmlns="http://www.w3.org/2000/svg" viewBox="0 0 64 64" role="img" aria-label="peach">
  <rect width="64" height="64" fill="transparent"/>
  <path d="M32 16c-9 0-17 6-19 15-2 10 3 21 19 21s21-11 19-21c-2-9-10-15-19-15Z" fill="#f4a169" stroke="#111827" stroke-width="3"/>
  <path d="M32 20c-7 0-13 5-15 11-2 8 3 17 15 17s17-9 15-17c-2-6-8-11-15-11Z" fill="#f9b985"/>
  <path d="M32 21c-2 4-2 9-2 13 0 5 0 9 2 13" fill="none" stroke="#e08b60" stroke-width="2" stroke-linecap="round"/>
  <ellipse cx="26" cy="30" rx="5" ry="3" fill="#ffd7b9"/>
  <rect x="31" y="10" width="3" height="7" rx="1" fill="#64452f"/>
  <path d="M33 12c4-3 8-3 10 0-3 0-6 2-8 4Z" fill="#8fc85f" stroke="#111827" stroke-width="2" stroke-linejoin="round"/>
</svg>
