<svg xmlns="http://www.w3.org/2000/svg" viewBox="0 0 64 64" role="img" aria-label="pear">
  <rect width="64" height="64" fill="transparent"/>
  <path d="M32 13c-4 0-7 3-7 7 0 4-2 6-5 9-5 4-7 10-6 16 2 8 9 13 18 13s16-5 18-13c1-6-1-12-6-16-3-3-5-5-5-9 0-4-3-7-7-7Z" fill="#96c955" stroke="#111827" stroke-width="3"/>
  <path d="M32 18c-3 0-5 2-5 5 0 4-2 7-5 9-4 3-5 8-4 12 2 6 7 10 14 10s12-4 14-10c1-4 0-9-4-12-3-2-5-5-5-9 0-3-2-5-5-5Z" fill="#aadc68"/>
  <ellipse cx="27" cy="31" rx="4" ry="3" fill="#e2f5bc"/>
  <rect x="31" y="6" width="3" height="8" rx="1" fill="#64452f"/>
  <path d="M33 9c4-3 8-3 10 0-3 0-6 2-8 5Z" fill="#8fc85f" stroke="#111827" stroke-width="2" stroke-linejoin="round"/>
</svg>
