<svg xmlns="http://www.w3.org/2000/svg" viewBox="0 0 64 64" role="img" aria-label="pumpkin">
  <rect width="64" height="64" fill="transparent"/>
  <path d="M32 12c-12 0-21 8-21 21s9 21 21 21 21-8 21-21-9-21-21-21Z" fill="#eb8b3b" stroke="#111827" stroke-width="3"/>
  <path d="M32 16c-9 0-17 7-17 17s8 17 17 17 17-7 17-17-8-17-17-17Z" fill="#f4a04f"/>
  <path d="M20 33c0-8 3-14 6-17M26 49c-1-4-1-10-1-16s0-12 1-16M32 51c0-5 0-11 0-18s0-13 0-18M38 49c1-4 1-10 1-16s0-12-1-16M44 33c0-8-3-14-6-17" fill="none" stroke="#d87930" stroke-width="2" stroke-linecap="round"/>
  <ellipse cx="25" cy="27" rx="5" ry="3" fill="#ffd2a1"/>
  <rect x="30" y="6" width="4" height="9" rx="1" fill="#64452f"/>
  <path d="M34 10c3-3 6-3 9-1-3 1-5 3-7 5Z" fill="#8fc85f" stroke="#111827" stroke-width="2" stroke-linejoin="round"/>
</svg>
