<svg xmlns="http://www.w3.org/2000/svg" viewBox="0 0 64 64" shape-rendering="crispEdges" role="img" aria-label="pumpkin">
  <rect width="64" height="64" fill="transparent"/>
  <path d="M32 12c-12 0-21 8-21 21s9 21 21 21 21-8 21-21-9-21-21-21Z" fill="#a65f2b" stroke="#1f2a44" stroke-width="2"/>
  <path d="M32 16c-10 0-17 7-17 17s7 17 17 17 17-7 17-17-7-17-17-17Z" fill="#ea973f"/>
  <path d="M20 33c0-8 3-14 6-17M26 49c-1-4-1-10-1-16s0-12 1-16M32 51c0-5 0-11 0-18s0-13 0-18M38 49c1-4 1-10 1-16s0-12-1-16M44 33c0-8-3-14-6-17" fill="none" stroke="#cf7b37" stroke-width="2" stroke-linecap="square"/>
  <ellipse cx="25" cy="27" rx="5" ry="3" fill="#ffd09d"/>
  <rect x="30" y="6" width="4" height="9" fill="#6b4a32"/>
  <path d="M34 10c3-3 6-3 9-1-3 1-5 3-7 5Z" fill="#5f9350"/>
</svg>
