<svg xmlns="http://www.w3.org/2000/svg" viewBox="0 0 96 96" shape-rendering="crispEdges" role="img" aria-label="berries icon">
  <rect x="0" y="0" width="96" height="96" fill="#1a2138"/>
  <rect x="4" y="4" width="88" height="88" fill="#7e54a2"/>
  <rect x="8" y="8" width="80" height="80" fill="#d4adf2"/>
  <rect x="24" y="28" width="2" height="2" fill="#ad3b52"/>
  <rect x="26" y="28" width="2" height="2" fill="#ad3b52"/>
  <rect x="28" y="28" width="2" height="2" fill="#ad3b52"/>
  <rect x="30" y="28" width="2" height="2" fill="#ad3b52"/>
  <rect x="20" y="30" width="2" height="2" fill="#ad3b52"/>
  <rect x="22" y="30" width="2" height="2" fill="#ad3b52"/>
  <rect x="24" y="30" width="2" height="2" fill="#ff6a82"/>
  <rect x="26" y="30" width="2" height="2" fill="#ff6a82"/>
  <rect x="28" y="30" width="2" height="2" fill="#ff6a82"/>
  <rect x="30" y="30" width="2" height="2" fill="#ff6a82"/>
  <rect x="32" y="30" width="2" height="2" fill="#ad3b52"/>
  <rect x="34" y="30" width="2" height="2" fill="#ad3b52"/>
  <rect x="18" y="32" width="2" height="2" fill="#ad3b52"/>
  <rect x="20" y="32" width="2" height="2" fill="#ad3b52"/>
  <rect x="22" y="32" width="2" height="2" fill="#ffb6c6"/>
  <rect x="24" y="32" width="2" height="2" fill="#ffb6c6"/>
  <rect x="26" y="32" width="2" height="2" fill="#ffb6c6"/>
  <rect x="28" y="32" width="2" height="2" fill="#ff6a82"/>
  <rect x="30" y="32" width="2" height="2" fill="#ff6a82"/>
  <rect x="32" y="32" width="2" height="2" fill="#ff6a82"/>
  <rect x="34" y="32" width="2" height="2" fill="#ad3b52"/>
  <rect x="36" y="32" width="2" height="2" fill="#ad3b52"/>
  <rect x="18" y="34" width="2" height="2" fill="#ad3b52"/>
  <rect x="20" y="34" width="2" height="2" fill="#ffb6c6"/>
  <rect x="22" y="34" width="2" height="2" fill="#ffb6c6"/>
  <rect x="24" y="34" width="2" height="2" fill="#ffb6c6"/>
  <rect x="26" y="34" width="2" height="2" fill="#ffb6c6"/>
  <rect x="28" y="34" width="2" height="2" fill="#ff6a82"/>
  <rect x="30" y="34" width="2" height="2" fill="#ff6a82"/>
  <rect x="32" y="34" width="2" height="2" fill="#ff6a82"/>
  <rect x="34" y="34" width="2" height="2" fill="#ff6a82"/>
  <rect x="36" y="34" width="2" height="2" fill="#ad3b52"/>
  <rect x="16" y="36" width="2" height="2" fill="#ad3b52"/>
  <rect x="18" y="36" width="2" height="2" fill="#ff6a82"/>
  <rect x="20" y="36" width="2" height="2" fill="#ffb6c6"/>
  <rect x="22" y="36" width="2" height="2" fill="#ffb6c6"/>
  <rect x="24" y="36" width="2" height="2" fill="#ffb6c6"/>
  <rect x="26" y="36" width="2" height="2" fill="#ffb6c6"/>
  <rect x="28" y="36" width="2" height="2" fill="#ff6a82"/>
  <rect x="30" y="36" width="2" height="2" fill="#ff6a82"/>
  <rect x="32" y="36" width="2" height="2" fill="#ff6a82"/>
  <rect x="34" y="36" width="2" height="2" fill="#ff6a82"/>
  <rect x="36" y="36" width="2" height="2" fill="#ff6a82"/>
  <rect x="38" y="36" width="2" height="2" fill="#ad3b52"/>
  <rect x="16" y="38" width="2" height="2" fill="#ad3b52"/>
  <rect x="18" y="38" width="2" height="2" fill="#ff6a82"/>
  <rect x="20" y="38" width="2" height="2" fill="#ffb6c6"/>
  <rect x="22" y="38" width="2" height="2" fill="#ffb6c6"/>
  <rect x="24" y="38" width="2" height="2" fill="#ffb6c6"/>
  <rect x="26" y="38" width="2" height="2" fill="#ffb6c6"/>
  <rect x="28" y="38" width="2" height="2" fill="#ff6a82"/>
  <rect x="30" y="38" width="2" height="2" fill="#ff6a82"/>
  <rect x="32" y="38" width="2" height="2" fill="#ff6a82"/>
  <rect x="34" y="38" width="2" height="2" fill="#ff6a82"/>
  <rect x="36" y="38" width="2" height="2" fill="#ff6a82"/>
  <rect x="38" y="38" width="2" height="2" fill="#ad3b52"/>
  <rect x="16" y="40" width="2" height="2" fill="#ad3b52"/>
  <rect x="18" y="40" width="2" height="2" fill="#ff6a82"/>
  <rect x="20" y="40" width="2" height="2" fill="#ff6a82"/>
  <rect x="22" y="40" width="2" height="2" fill="#ff6a82"/>
  <rect x="24" y="40" width="2" height="2" fill="#ff6a82"/>
  <rect x="26" y="40" width="2" height="2" fill="#ff6a82"/>
  <rect x="28" y="40" width="2" height="2" fill="#ff6a82"/>
  <rect x="30" y="40" width="2" height="2" fill="#ff6a82"/>
  <rect x="32" y="40" width="2" height="2" fill="#ff6a82"/>
  <rect x="34" y="40" width="2" height="2" fill="#ff6a82"/>
  <rect x="36" y="40" width="2" height="2" fill="#ff6a82"/>
  <rect x="38" y="40" width="2" height="2" fill="#ad3b52"/>
  <rect x="16" y="42" width="2" height="2" fill="#ad3b52"/>
  <rect x="18" y="42" width="2" height="2" fill="#ff6a82"/>
  <rect x="20" y="42" width="2" height="2" fill="#ff6a82"/>
  <rect x="22" y="42" width="2" height="2" fill="#ff6a82"/>
  <rect x="24" y="42" width="2" height="2" fill="#ff6a82"/>
  <rect x="26" y="42" width="2" height="2" fill="#ff6a82"/>
  <rect x="28" y="42" width="2" height="2" fill="#ff6a82"/>
  <rect x="30" y="42" width="2" height="2" fill="#ff6a82"/>
  <rect x="32" y="42" width="2" height="2" fill="#ff6a82"/>
  <rect x="34" y="42" width="2" height="2" fill="#ff6a82"/>
  <rect x="36" y="42" width="2" height="2" fill="#ff6a82"/>
  <rect x="38" y="42" width="2" height="2" fill="#ad3b52"/>
  <rect x="18" y="44" width="2" height="2" fill="#ad3b52"/>
  <rect x="20" y="44" width="2" height="2" fill="#ff6a82"/>
  <rect x="22" y="44" width="2" height="2" fill="#ff6a82"/>
  <rect x="24" y="44" width="2" height="2" fill="#ff6a82"/>
  <rect x="26" y="44" width="2" height="2" fill="#ff6a82"/>
  <rect x="28" y="44" width="2" height="2" fill="#ff6a82"/>
  <rect x="30" y="44" width="2" height="2" fill="#ff6a82"/>
  <rect x="32" y="44" width="2" height="2" fill="#ff6a82"/>
  <rect x="34" y="44" width="2" height="2" fill="#ff6a82"/>
  <rect x="36" y="44" width="2" height="2" fill="#ad3b52"/>
  <rect x="18" y="46" width="2" height="2" fill="#ad3b52"/>
  <rect x="20" y="46" width="2" height="2" fill="#ad3b52"/>
  <rect x="22" y="46" width="2" height="2" fill="#ff6a82"/>
  <rect x="24" y="46" width="2" height="2" fill="#ff6a82"/>
  <rect x="26" y="46" width="2" height="2" fill="#ff6a82"/>
  <rect x="28" y="46" width="2" height="2" fill="#ff6a82"/>
  <rect x="30" y="46" width="2" height="2" fill="#ff6a82"/>
  <rect x="32" y="46" width="2" height="2" fill="#ff6a82"/>
  <rect x="34" y="46" width="2" height="2" fill="#ad3b52"/>
  <rect x="36" y="46" width="2" height="2" fill="#ad3b52"/>
  <rect x="20" y="48" width="2" height="2" fill="#ad3b52"/>
  <rect x="22" y="48" width="2" height="2" fill="#ad3b52"/>
  <rect x="24" y="48" width="2" height="2" fill="#ff6a82"/>
  <rect x="26" y="48" width="2" height="2" fill="#ff6a82"/>
  <rect x="28" y="48" width="2" height="2" fill="#ff6a82"/>
  <rect x="30" y="48" width="2" height="2" fill="#ff6a82"/>
  <rect x="32" y="48" width="2" height="2" fill="#ad3b52"/>
  <rect x="34" y="48" width="2" height="2" fill="#ad3b52"/>
  <rect x="24" y="50" width="2" height="2" fill="#ad3b52"/>
  <rect x="26" y="50" width="2" height="2" fill="#ad3b52"/>
  <rect x="28" y="50" width="2" height="2" fill="#ad3b52"/>
  <rect x="30" y="50" width="2" height="2" fill="#ad3b52"/>
  <rect x="42" y="32" width="2" height="2" fill="#b8882b"/>
  <rect x="44" y="32" width="2" height="2" fill="#b8882b"/>
  <rect x="46" y="32" width="2" height="2" fill="#b8882b"/>
  <rect x="48" y="32" width="2" height="2" fill="#b8882b"/>
  <rect x="50" y="32" width="2" height="2" fill="#b8882b"/>
  <rect x="52" y="32" width="2" height="2" fill="#b8882b"/>
  <rect x="38" y="34" width="2" height="2" fill="#b8882b"/>
  <rect x="40" y="34" width="2" height="2" fill="#b8882b"/>
  <rect x="42" y="34" width="2" height="2" fill="#b8882b"/>
  <rect x="44" y="34" width="2" height="2" fill="#ffd86d"/>
  <rect x="46" y="34" width="2" height="2" fill="#ffd86d"/>
  <rect x="48" y="34" width="2" height="2" fill="#ffd86d"/>
  <rect x="50" y="34" width="2" height="2" fill="#ffd86d"/>
  <rect x="52" y="34" width="2" height="2" fill="#b8882b"/>
  <rect x="54" y="34" width="2" height="2" fill="#b8882b"/>
  <rect x="56" y="34" width="2" height="2" fill="#b8882b"/>
  <rect x="36" y="36" width="2" height="2" fill="#b8882b"/>
  <rect x="38" y="36" width="2" height="2" fill="#b8882b"/>
  <rect x="40" y="36" width="2" height="2" fill="#ffd86d"/>
  <rect x="42" y="36" width="2" height="2" fill="#fff2b4"/>
  <rect x="44" y="36" width="2" height="2" fill="#fff2b4"/>
  <rect x="46" y="36" width="2" height="2" fill="#ffd86d"/>
  <rect x="48" y="36" width="2" height="2" fill="#ffd86d"/>
  <rect x="50" y="36" width="2" height="2" fill="#ffd86d"/>
  <rect x="52" y="36" width="2" height="2" fill="#ffd86d"/>
  <rect x="54" y="36" width="2" height="2" fill="#ffd86d"/>
  <rect x="56" y="36" width="2" height="2" fill="#b8882b"/>
  <rect x="58" y="36" width="2" height="2" fill="#b8882b"/>
  <rect x="34" y="38" width="2" height="2" fill="#b8882b"/>
  <rect x="36" y="38" width="2" height="2" fill="#b8882b"/>
  <rect x="38" y="38" width="2" height="2" fill="#fff2b4"/>
  <rect x="40" y="38" width="2" height="2" fill="#fff2b4"/>
  <rect x="42" y="38" width="2" height="2" fill="#fff2b4"/>
  <rect x="44" y="38" width="2" height="2" fill="#fff2b4"/>
  <rect x="46" y="38" width="2" height="2" fill="#ffd86d"/>
  <rect x="48" y="38" width="2" height="2" fill="#ffd86d"/>
  <rect x="50" y="38" width="2" height="2" fill="#ffd86d"/>
  <rect x="52" y="38" width="2" height="2" fill="#ffd86d"/>
  <rect x="54" y="38" width="2" height="2" fill="#ffd86d"/>
  <rect x="56" y="38" width="2" height="2" fill="#ffd86d"/>
  <rect x="58" y="38" width="2" height="2" fill="#b8882b"/>
  <rect x="60" y="38" width="2" height="2" fill="#b8882b"/>
  <rect x="34" y="40" width="2" height="2" fill="#b8882b"/>
  <rect x="36" y="40" width="2" height="2" fill="#ffd86d"/>
  <rect x="38" y="40" width="2" height="2" fill="#fff2b4"/>
  <rect x="40" y="40" width="2" height="2" fill="#fff2b4"/>
  <rect x="42" y="40" width="2" height="2" fill="#fff2b4"/>
  <rect x="44" y="40" width="2" height="2" fill="#fff2b4"/>
  <rect x="46" y="40" width="2" height="2" fill="#ffd86d"/>
  <rect x="48" y="40" width="2" height="2" fill="#ffd86d"/>
  <rect x="50" y="40" width="2" height="2" fill="#ffd86d"/>
  <rect x="52" y="40" width="2" height="2" fill="#ffd86d"/>
  <rect x="54" y="40" width="2" height="2" fill="#ffd86d"/>
  <rect x="56" y="40" width="2" height="2" fill="#ffd86d"/>
  <rect x="58" y="40" width="2" height="2" fill="#ffd86d"/>
  <rect x="60" y="40" width="2" height="2" fill="#b8882b"/>
  <rect x="32" y="42" width="2" height="2" fill="#b8882b"/>
  <rect x="34" y="42" width="2" height="2" fill="#b8882b"/>
  <rect x="36" y="42" width="2" height="2" fill="#fff2b4"/>
  <rect x="38" y="42" width="2" height="2" fill="#fff2b4"/>
  <rect x="40" y="42" width="2" height="2" fill="#fff2b4"/>
  <rect x="42" y="42" width="2" height="2" fill="#fff2b4"/>
  <rect x="44" y="42" width="2" height="2" fill="#fff2b4"/>
  <rect x="46" y="42" width="2" height="2" fill="#ffd86d"/>
  <rect x="48" y="42" width="2" height="2" fill="#ffd86d"/>
  <rect x="50" y="42" width="2" height="2" fill="#ffd86d"/>
  <rect x="52" y="42" width="2" height="2" fill="#ffd86d"/>
  <rect x="54" y="42" width="2" height="2" fill="#ffd86d"/>
  <rect x="56" y="42" width="2" height="2" fill="#ffd86d"/>
  <rect x="58" y="42" width="2" height="2" fill="#ffd86d"/>
  <rect x="60" y="42" width="2" height="2" fill="#b8882b"/>
  <rect x="62" y="42" width="2" height="2" fill="#b8882b"/>
  <rect x="32" y="44" width="2" height="2" fill="#b8882b"/>
  <rect x="34" y="44" width="2" height="2" fill="#ffd86d"/>
  <rect x="36" y="44" width="2" height="2" fill="#fff2b4"/>
  <rect x="38" y="44" width="2" height="2" fill="#fff2b4"/>
  <rect x="40" y="44" width="2" height="2" fill="#fff2b4"/>
  <rect x="42" y="44" width="2" height="2" fill="#fff2b4"/>
  <rect x="44" y="44" width="2" height="2" fill="#fff2b4"/>
  <rect x="46" y="44" width="2" height="2" fill="#ffd86d"/>
  <rect x="48" y="44" width="2" height="2" fill="#ffd86d"/>
  <rect x="50" y="44" width="2" height="2" fill="#ffd86d"/>
  <rect x="52" y="44" width="2" height="2" fill="#ffd86d"/>
  <rect x="54" y="44" width="2" height="2" fill="#ffd86d"/>
  <rect x="56" y="44" width="2" height="2" fill="#ffd86d"/>
  <rect x="58" y="44" width="2" height="2" fill="#ffd86d"/>
  <rect x="60" y="44" width="2" height="2" fill="#ffd86d"/>
  <rect x="62" y="44" width="2" height="2" fill="#b8882b"/>
  <rect x="32" y="46" width="2" height="2" fill="#b8882b"/>
  <rect x="34" y="46" width="2" height="2" fill="#ffd86d"/>
  <rect x="36" y="46" width="2" height="2" fill="#ffd86d"/>
  <rect x="38" y="46" width="2" height="2" fill="#ffd86d"/>
  <rect x="40" y="46" width="2" height="2" fill="#ffd86d"/>
  <rect x="42" y="46" width="2" height="2" fill="#ffd86d"/>
  <rect x="44" y="46" width="2" height="2" fill="#ffd86d"/>
  <rect x="46" y="46" width="2" height="2" fill="#ffd86d"/>
  <rect x="48" y="46" width="2" height="2" fill="#ffd86d"/>
  <rect x="50" y="46" width="2" height="2" fill="#ffd86d"/>
  <rect x="52" y="46" width="2" height="2" fill="#ffd86d"/>
  <rect x="54" y="46" width="2" height="2" fill="#ffd86d"/>
  <rect x="56" y="46" width="2" height="2" fill="#ffd86d"/>
  <rect x="58" y="46" width="2" height="2" fill="#ffd86d"/>
  <rect x="60" y="46" width="2" height="2" fill="#ffd86d"/>
  <rect x="62" y="46" width="2" height="2" fill="#b8882b"/>
  <rect x="32" y="48" width="2" height="2" fill="#b8882b"/>
  <rect x="34" y="48" width="2" height="2" fill="#ffd86d"/>
  <rect x="36" y="48" width="2" height="2" fill="#ffd86d"/>
  <rect x="38" y="48" width="2" height="2" fill="#ffd86d"/>
  <rect x="40" y="48" width="2" height="2" fill="#ffd86d"/>
  <rect x="42" y="48" width="2" height="2" fill="#ffd86d"/>
  <rect x="44" y="48" width="2" height="2" fill="#ffd86d"/>
  <rect x="46" y="48" width="2" height="2" fill="#ffd86d"/>
  <rect x="48" y="48" width="2" height="2" fill="#ffd86d"/>
  <rect x="50" y="48" width="2" height="2" fill="#ffd86d"/>
  <rect x="52" y="48" width="2" height="2" fill="#ffd86d"/>
  <rect x="54" y="48" width="2" height="2" fill="#ffd86d"/>
  <rect x="56" y="48" width="2" height="2" fill="#ffd86d"/>
  <rect x="58" y="48" width="2" height="2" fill="#ffd86d"/>
  <rect x="60" y="48" width="2" height="2" fill="#ffd86d"/>
  <rect x="62" y="48" width="2" height="2" fill="#b8882b"/>
  <rect x="32" y="50" width="2" height="2" fill="#b8882b"/>
  <rect x="34" y="50" width="2" height="2" fill="#ffd86d"/>
  <rect x="36" y="50" width="2" height="2" fill="#ffd86d"/>
  <rect x="38" y="50" width="2" height="2" fill="#ffd86d"/>
  <rect x="40" y="50" width="2" height="2" fill="#ffd86d"/>
  <rect x="42" y="50" width="2" height="2" fill="#ffd86d"/>
  <rect x="44" y="50" width="2" height="2" fill="#ffd86d"/>
  <rect x="46" y="50" width="2" height="2" fill="#ffd86d"/>
  <rect x="48" y="50" width="2" height="2" fill="#ffd86d"/>
  <rect x="50" y="50" width="2" height="2" fill="#ffd86d"/>
  <rect x="52" y="50" width="2" height="2" fill="#ffd86d"/>
  <rect x="54" y="50" width="2" height="2" fill="#ffd86d"/>
  <rect x="56" y="50" width="2" height="2" fill="#ffd86d"/>
  <rect x="58" y="50" width="2" height="2" fill="#ffd86d"/>
  <rect x="60" y="50" width="2" height="2" fill="#ffd86d"/>
  <rect x="62" y="50" width="2" height="2" fill="#b8882b"/>
  <rect x="32" y="52" width="2" height="2" fill="#b8882b"/>
  <rect x="34" y="52" width="2" height="2" fill="#b8882b"/>
  <rect x="36" y="52" width="2" height="2" fill="#ffd86d"/>
  <rect x="38" y="52" width="2" height="2" fill="#ffd86d"/>
  <rect x="40" y="52" width="2" height="2" fill="#ffd86d"/>
  <rect x="42" y="52" width="2" height="2" fill="#ffd86d"/>
  <rect x="44" y="52" width="2" height="2" fill="#ffd86d"/>
  <rect x="46" y="52" width="2" height="2" fill="#ffd86d"/>
  <rect x="48" y="52" width="2" height="2" fill="#ffd86d"/>
  <rect x="50" y="52" width="2" height="2" fill="#ffd86d"/>
  <rect x="52" y="52" width="2" height="2" fill="#ffd86d"/>
  <rect x="54" y="52" width="2" height="2" fill="#ffd86d"/>
  <rect x="56" y="52" width="2" height="2" fill="#ffd86d"/>
  <rect x="58" y="52" width="2" height="2" fill="#ffd86d"/>
  <rect x="60" y="52" width="2" height="2" fill="#b8882b"/>
  <rect x="62" y="52" width="2" height="2" fill="#b8882b"/>
  <rect x="34" y="54" width="2" height="2" fill="#b8882b"/>
  <rect x="36" y="54" width="2" height="2" fill="#ffd86d"/>
  <rect x="38" y="54" width="2" height="2" fill="#ffd86d"/>
  <rect x="40" y="54" width="2" height="2" fill="#ffd86d"/>
  <rect x="42" y="54" width="2" height="2" fill="#ffd86d"/>
  <rect x="44" y="54" width="2" height="2" fill="#ffd86d"/>
  <rect x="46" y="54" width="2" height="2" fill="#ffd86d"/>
  <rect x="48" y="54" width="2" height="2" fill="#ffd86d"/>
  <rect x="50" y="54" width="2" height="2" fill="#ffd86d"/>
  <rect x="52" y="54" width="2" height="2" fill="#ffd86d"/>
  <rect x="54" y="54" width="2" height="2" fill="#ffd86d"/>
  <rect x="56" y="54" width="2" height="2" fill="#ffd86d"/>
  <rect x="58" y="54" width="2" height="2" fill="#ffd86d"/>
  <rect x="60" y="54" width="2" height="2" fill="#b8882b"/>
  <rect x="34" y="56" width="2" height="2" fill="#b8882b"/>
  <rect x="36" y="56" width="2" height="2" fill="#b8882b"/>
  <rect x="38" y="56" width="2" height="2" fill="#ffd86d"/>
  <rect x="40" y="56" width="2" height="2" fill="#ffd86d"/>
  <rect x="42" y="56" width="2" height="2" fill="#ffd86d"/>
  <rect x="44" y="56" width="2" height="2" fill="#ffd86d"/>
  <rect x="46" y="56" width="2" height="2" fill="#ffd86d"/>
  <rect x="48" y="56" width="2" height="2" fill="#ffd86d"/>
  <rect x="50" y="56" width="2" height="2" fill="#ffd86d"/>
  <rect x="52" y="56" width="2" height="2" fill="#ffd86d"/>
  <rect x="54" y="56" width="2" height="2" fill="#ffd86d"/>
  <rect x="56" y="56" width="2" height="2" fill="#ffd86d"/>
  <rect x="58" y="56" width="2" height="2" fill="#b8882b"/>
  <rect x="60" y="56" width="2" height="2" fill="#b8882b"/>
  <rect x="36" y="58" width="2" height="2" fill="#b8882b"/>
  <rect x="38" y="58" width="2" height="2" fill="#b8882b"/>
  <rect x="40" y="58" width="2" height="2" fill="#ffd86d"/>
  <rect x="42" y="58" width="2" height="2" fill="#ffd86d"/>
  <rect x="44" y="58" width="2" height="2" fill="#ffd86d"/>
  <rect x="46" y="58" width="2" height="2" fill="#ffd86d"/>
  <rect x="48" y="58" width="2" height="2" fill="#ffd86d"/>
  <rect x="50" y="58" width="2" height="2" fill="#ffd86d"/>
  <rect x="52" y="58" width="2" height="2" fill="#ffd86d"/>
  <rect x="54" y="58" width="2" height="2" fill="#ffd86d"/>
  <rect x="56" y="58" width="2" height="2" fill="#b8882b"/>
  <rect x="58" y="58" width="2" height="2" fill="#b8882b"/>
  <rect x="38" y="60" width="2" height="2" fill="#b8882b"/>
  <rect x="40" y="60" width="2" height="2" fill="#b8882b"/>
  <rect x="42" y="60" width="2" height="2" fill="#b8882b"/>
  <rect x="44" y="60" width="2" height="2" fill="#ffd86d"/>
  <rect x="46" y="60" width="2" height="2" fill="#ffd86d"/>
  <rect x="48" y="60" width="2" height="2" fill="#ffd86d"/>
  <rect x="50" y="60" width="2" height="2" fill="#ffd86d"/>
  <rect x="52" y="60" width="2" height="2" fill="#b8882b"/>
  <rect x="54" y="60" width="2" height="2" fill="#b8882b"/>
  <rect x="56" y="60" width="2" height="2" fill="#b8882b"/>
  <rect x="42" y="62" width="2" height="2" fill="#b8882b"/>
  <rect x="44" y="62" width="2" height="2" fill="#b8882b"/>
  <rect x="46" y="62" width="2" height="2" fill="#b8882b"/>
  <rect x="48" y="62" width="2" height="2" fill="#b8882b"/>
  <rect x="50" y="62" width="2" height="2" fill="#b8882b"/>
  <rect x="52" y="62" width="2" height="2" fill="#b8882b"/>
  <rect x="62" y="38" width="2" height="2" fill="#3f8643"/>
  <rect x="64" y="38" width="2" height="2" fill="#3f8643"/>
  <rect x="66" y="38" width="2" height="2" fill="#3f8643"/>
  <rect x="68" y="38" width="2" height="2" fill="#3f8643"/>
  <rect x="70" y="38" width="2" height="2" fill="#3f8643"/>
  <rect x="72" y="38" width="2" height="2" fill="#3f8643"/>
  <rect x="58" y="40" width="2" height="2" fill="#3f8643"/>
  <rect x="60" y="40" width="2" height="2" fill="#3f8643"/>
  <rect x="62" y="40" width="2" height="2" fill="#3f8643"/>
  <rect x="64" y="40" width="2" height="2" fill="#79cd6a"/>
  <rect x="66" y="40" width="2" height="2" fill="#79cd6a"/>
  <rect x="68" y="40" width="2" height="2" fill="#79cd6a"/>
  <rect x="70" y="40" width="2" height="2" fill="#79cd6a"/>
  <rect x="72" y="40" width="2" height="2" fill="#3f8643"/>
  <rect x="74" y="40" width="2" height="2" fill="#3f8643"/>
  <rect x="76" y="40" width="2" height="2" fill="#3f8643"/>
  <rect x="56" y="42" width="2" height="2" fill="#3f8643"/>
  <rect x="58" y="42" width="2" height="2" fill="#3f8643"/>
  <rect x="60" y="42" width="2" height="2" fill="#bae9b0"/>
  <rect x="62" y="42" width="2" height="2" fill="#bae9b0"/>
  <rect x="64" y="42" width="2" height="2" fill="#bae9b0"/>
  <rect x="66" y="42" width="2" height="2" fill="#79cd6a"/>
  <rect x="68" y="42" width="2" height="2" fill="#79cd6a"/>
  <rect x="70" y="42" width="2" height="2" fill="#79cd6a"/>
  <rect x="72" y="42" width="2" height="2" fill="#79cd6a"/>
  <rect x="74" y="42" width="2" height="2" fill="#79cd6a"/>
  <rect x="76" y="42" width="2" height="2" fill="#3f8643"/>
  <rect x="78" y="42" width="2" height="2" fill="#3f8643"/>
  <rect x="54" y="44" width="2" height="2" fill="#3f8643"/>
  <rect x="56" y="44" width="2" height="2" fill="#79cd6a"/>
  <rect x="58" y="44" width="2" height="2" fill="#bae9b0"/>
  <rect x="60" y="44" width="2" height="2" fill="#bae9b0"/>
  <rect x="62" y="44" width="2" height="2" fill="#bae9b0"/>
  <rect x="64" y="44" width="2" height="2" fill="#bae9b0"/>
  <rect x="66" y="44" width="2" height="2" fill="#79cd6a"/>
  <rect x="68" y="44" width="2" height="2" fill="#79cd6a"/>
  <rect x="70" y="44" width="2" height="2" fill="#79cd6a"/>
  <rect x="72" y="44" width="2" height="2" fill="#79cd6a"/>
  <rect x="74" y="44" width="2" height="2" fill="#79cd6a"/>
  <rect x="76" y="44" width="2" height="2" fill="#79cd6a"/>
  <rect x="78" y="44" width="2" height="2" fill="#79cd6a"/>
  <rect x="80" y="44" width="2" height="2" fill="#3f8643"/>
  <rect x="52" y="46" width="2" height="2" fill="#3f8643"/>
  <rect x="54" y="46" width="2" height="2" fill="#3f8643"/>
  <rect x="56" y="46" width="2" height="2" fill="#bae9b0"/>
  <rect x="58" y="46" width="2" height="2" fill="#bae9b0"/>
  <rect x="60" y="46" width="2" height="2" fill="#bae9b0"/>
  <rect x="62" y="46" width="2" height="2" fill="#bae9b0"/>
  <rect x="64" y="46" width="2" height="2" fill="#bae9b0"/>
  <rect x="66" y="46" width="2" height="2" fill="#79cd6a"/>
  <rect x="68" y="46" width="2" height="2" fill="#79cd6a"/>
  <rect x="70" y="46" width="2" height="2" fill="#79cd6a"/>
  <rect x="72" y="46" width="2" height="2" fill="#79cd6a"/>
  <rect x="74" y="46" width="2" height="2" fill="#79cd6a"/>
  <rect x="76" y="46" width="2" height="2" fill="#79cd6a"/>
  <rect x="78" y="46" width="2" height="2" fill="#79cd6a"/>
  <rect x="80" y="46" width="2" height="2" fill="#3f8643"/>
  <rect x="82" y="46" width="2" height="2" fill="#3f8643"/>
  <rect x="52" y="48" width="2" height="2" fill="#3f8643"/>
  <rect x="54" y="48" width="2" height="2" fill="#bae9b0"/>
  <rect x="56" y="48" width="2" height="2" fill="#bae9b0"/>
  <rect x="58" y="48" width="2" height="2" fill="#bae9b0"/>
  <rect x="60" y="48" width="2" height="2" fill="#bae9b0"/>
  <rect x="62" y="48" width="2" height="2" fill="#bae9b0"/>
  <rect x="64" y="48" width="2" height="2" fill="#bae9b0"/>
  <rect x="66" y="48" width="2" height="2" fill="#79cd6a"/>
  <rect x="68" y="48" width="2" height="2" fill="#79cd6a"/>
  <rect x="70" y="48" width="2" height="2" fill="#79cd6a"/>
  <rect x="72" y="48" width="2" height="2" fill="#79cd6a"/>
  <rect x="74" y="48" width="2" height="2" fill="#79cd6a"/>
  <rect x="76" y="48" width="2" height="2" fill="#79cd6a"/>
  <rect x="78" y="48" width="2" height="2" fill="#79cd6a"/>
  <rect x="80" y="48" width="2" height="2" fill="#79cd6a"/>
  <rect x="82" y="48" width="2" height="2" fill="#3f8643"/>
  <rect x="50" y="50" width="2" height="2" fill="#3f8643"/>
  <rect x="52" y="50" width="2" height="2" fill="#3f8643"/>
  <rect x="54" y="50" width="2" height="2" fill="#bae9b0"/>
  <rect x="56" y="50" width="2" height="2" fill="#bae9b0"/>
  <rect x="58" y="50" width="2" height="2" fill="#bae9b0"/>
  <rect x="60" y="50" width="2" height="2" fill="#bae9b0"/>
  <rect x="62" y="50" width="2" height="2" fill="#bae9b0"/>
  <rect x="64" y="50" width="2" height="2" fill="#bae9b0"/>
  <rect x="66" y="50" width="2" height="2" fill="#79cd6a"/>
  <rect x="68" y="50" width="2" height="2" fill="#79cd6a"/>
  <rect x="70" y="50" width="2" height="2" fill="#79cd6a"/>
  <rect x="72" y="50" width="2" height="2" fill="#79cd6a"/>
  <rect x="74" y="50" width="2" height="2" fill="#79cd6a"/>
  <rect x="76" y="50" width="2" height="2" fill="#79cd6a"/>
  <rect x="78" y="50" width="2" height="2" fill="#79cd6a"/>
  <rect x="80" y="50" width="2" height="2" fill="#79cd6a"/>
  <rect x="82" y="50" width="2" height="2" fill="#3f8643"/>
  <rect x="84" y="50" width="2" height="2" fill="#3f8643"/>
  <rect x="50" y="52" width="2" height="2" fill="#3f8643"/>
  <rect x="52" y="52" width="2" height="2" fill="#79cd6a"/>
  <rect x="54" y="52" width="2" height="2" fill="#bae9b0"/>
  <rect x="56" y="52" width="2" height="2" fill="#bae9b0"/>
  <rect x="58" y="52" width="2" height="2" fill="#bae9b0"/>
  <rect x="60" y="52" width="2" height="2" fill="#bae9b0"/>
  <rect x="62" y="52" width="2" height="2" fill="#bae9b0"/>
  <rect x="64" y="52" width="2" height="2" fill="#bae9b0"/>
  <rect x="66" y="52" width="2" height="2" fill="#79cd6a"/>
  <rect x="68" y="52" width="2" height="2" fill="#79cd6a"/>
  <rect x="70" y="52" width="2" height="2" fill="#79cd6a"/>
  <rect x="72" y="52" width="2" height="2" fill="#79cd6a"/>
  <rect x="74" y="52" width="2" height="2" fill="#79cd6a"/>
  <rect x="76" y="52" width="2" height="2" fill="#79cd6a"/>
  <rect x="78" y="52" width="2" height="2" fill="#79cd6a"/>
  <rect x="80" y="52" width="2" height="2" fill="#79cd6a"/>
  <rect x="82" y="52" width="2" height="2" fill="#79cd6a"/>
  <rect x="84" y="52" width="2" height="2" fill="#3f8643"/>
  <rect x="50" y="54" width="2" height="2" fill="#3f8643"/>
  <rect x="52" y="54" width="2" height="2" fill="#79cd6a"/>
  <rect x="54" y="54" width="2" height="2" fill="#79cd6a"/>
  <rect x="56" y="54" width="2" height="2" fill="#79cd6a"/>
  <rect x="58" y="54" width="2" height="2" fill="#79cd6a"/>
  <rect x="60" y="54" width="2" height="2" fill="#79cd6a"/>
  <rect x="62" y="54" width="2" height="2" fill="#79cd6a"/>
  <rect x="64" y="54" width="2" height="2" fill="#79cd6a"/>
  <rect x="66" y="54" width="2" height="2" fill="#79cd6a"/>
  <rect x="68" y="54" width="2" height="2" fill="#79cd6a"/>
  <rect x="70" y="54" width="2" height="2" fill="#79cd6a"/>
  <rect x="72" y="54" width="2" height="2" fill="#79cd6a"/>
  <rect x="74" y="54" width="2" height="2" fill="#79cd6a"/>
  <rect x="76" y="54" width="2" height="2" fill="#79cd6a"/>
  <rect x="78" y="54" width="2" height="2" fill="#79cd6a"/>
  <rect x="80" y="54" width="2" height="2" fill="#79cd6a"/>
  <rect x="82" y="54" width="2" height="2" fill="#79cd6a"/>
  <rect x="84" y="54" width="2" height="2" fill="#3f8643"/>
  <rect x="50" y="56" width="2" height="2" fill="#3f8643"/>
  <rect x="52" y="56" width="2" height="2" fill="#79cd6a"/>
  <rect x="54" y="56" width="2" height="2" fill="#79cd6a"/>
  <rect x="56" y="56" width="2" height="2" fill="#79cd6a"/>
  <rect x="58" y="56" width="2" height="2" fill="#79cd6a"/>
  <rect x="60" y="56" width="2" height="2" fill="#79cd6a"/>
  <rect x="62" y="56" width="2" height="2" fill="#79cd6a"/>
  <rect x="64" y="56" width="2" height="2" fill="#79cd6a"/>
  <rect x="66" y="56" width="2" height="2" fill="#79cd6a"/>
  <rect x="68" y="56" width="2" height="2" fill="#79cd6a"/>
  <rect x="70" y="56" width="2" height="2" fill="#79cd6a"/>
  <rect x="72" y="56" width="2" height="2" fill="#79cd6a"/>
  <rect x="74" y="56" width="2" height="2" fill="#79cd6a"/>
  <rect x="76" y="56" width="2" height="2" fill="#79cd6a"/>
  <rect x="78" y="56" width="2" height="2" fill="#79cd6a"/>
  <rect x="80" y="56" width="2" height="2" fill="#79cd6a"/>
  <rect x="82" y="56" width="2" height="2" fill="#79cd6a"/>
  <rect x="84" y="56" width="2" height="2" fill="#3f8643"/>
  <rect x="50" y="58" width="2" height="2" fill="#3f8643"/>
  <rect x="52" y="58" width="2" height="2" fill="#79cd6a"/>
  <rect x="54" y="58" width="2" height="2" fill="#79cd6a"/>
  <rect x="56" y="58" width="2" height="2" fill="#79cd6a"/>
  <rect x="58" y="58" width="2" height="2" fill="#79cd6a"/>
  <rect x="60" y="58" width="2" height="2" fill="#79cd6a"/>
  <rect x="62" y="58" width="2" height="2" fill="#79cd6a"/>
  <rect x="64" y="58" width="2" height="2" fill="#79cd6a"/>
  <rect x="66" y="58" width="2" height="2" fill="#79cd6a"/>
  <rect x="68" y="58" width="2" height="2" fill="#79cd6a"/>
  <rect x="70" y="58" width="2" height="2" fill="#79cd6a"/>
  <rect x="72" y="58" width="2" height="2" fill="#79cd6a"/>
  <rect x="74" y="58" width="2" height="2" fill="#79cd6a"/>
  <rect x="76" y="58" width="2" height="2" fill="#79cd6a"/>
  <rect x="78" y="58" width="2" height="2" fill="#79cd6a"/>
  <rect x="80" y="58" width="2" height="2" fill="#79cd6a"/>
  <rect x="82" y="58" width="2" height="2" fill="#79cd6a"/>
  <rect x="84" y="58" width="2" height="2" fill="#3f8643"/>
  <rect x="50" y="60" width="2" height="2" fill="#3f8643"/>
  <rect x="52" y="60" width="2" height="2" fill="#3f8643"/>
  <rect x="54" y="60" width="2" height="2" fill="#79cd6a"/>
  <rect x="56" y="60" width="2" height="2" fill="#79cd6a"/>
  <rect x="58" y="60" width="2" height="2" fill="#79cd6a"/>
  <rect x="60" y="60" width="2" height="2" fill="#79cd6a"/>
  <rect x="62" y="60" width="2" height="2" fill="#79cd6a"/>
  <rect x="64" y="60" width="2" height="2" fill="#79cd6a"/>
  <rect x="66" y="60" width="2" height="2" fill="#79cd6a"/>
  <rect x="68" y="60" width="2" height="2" fill="#79cd6a"/>
  <rect x="70" y="60" width="2" height="2" fill="#79cd6a"/>
  <rect x="72" y="60" width="2" height="2" fill="#79cd6a"/>
  <rect x="74" y="60" width="2" height="2" fill="#79cd6a"/>
  <rect x="76" y="60" width="2" height="2" fill="#79cd6a"/>
  <rect x="78" y="60" width="2" height="2" fill="#79cd6a"/>
  <rect x="80" y="60" width="2" height="2" fill="#79cd6a"/>
  <rect x="82" y="60" width="2" height="2" fill="#3f8643"/>
  <rect x="84" y="60" width="2" height="2" fill="#3f8643"/>
  <rect x="52" y="62" width="2" height="2" fill="#3f8643"/>
  <rect x="54" y="62" width="2" height="2" fill="#79cd6a"/>
  <rect x="56" y="62" width="2" height="2" fill="#79cd6a"/>
  <rect x="58" y="62" width="2" height="2" fill="#79cd6a"/>
  <rect x="60" y="62" width="2" height="2" fill="#79cd6a"/>
  <rect x="62" y="62" width="2" height="2" fill="#79cd6a"/>
  <rect x="64" y="62" width="2" height="2" fill="#79cd6a"/>
  <rect x="66" y="62" width="2" height="2" fill="#79cd6a"/>
  <rect x="68" y="62" width="2" height="2" fill="#79cd6a"/>
  <rect x="70" y="62" width="2" height="2" fill="#79cd6a"/>
  <rect x="72" y="62" width="2" height="2" fill="#79cd6a"/>
  <rect x="74" y="62" width="2" height="2" fill="#79cd6a"/>
  <rect x="76" y="62" width="2" height="2" fill="#79cd6a"/>
  <rect x="78" y="62" width="2" height="2" fill="#79cd6a"/>
  <rect x="80" y="62" width="2" height="2" fill="#79cd6a"/>
  <rect x="82" y="62" width="2" height="2" fill="#3f8643"/>
  <rect x="52" y="64" width="2" height="2" fill="#3f8643"/>
  <rect x="54" y="64" width="2" height="2" fill="#3f8643"/>
  <rect x="56" y="64" width="2" height="2" fill="#79cd6a"/>
  <rect x="58" y="64" width="2" height="2" fill="#79cd6a"/>
  <rect x="60" y="64" width="2" height="2" fill="#79cd6a"/>
  <rect x="62" y="64" width="2" height="2" fill="#79cd6a"/>
  <rect x="64" y="64" width="2" height="2" fill="#79cd6a"/>
  <rect x="66" y="64" width="2" height="2" fill="#79cd6a"/>
  <rect x="68" y="64" width="2" height="2" fill="#79cd6a"/>
  <rect x="70" y="64" width="2" height="2" fill="#79cd6a"/>
  <rect x="72" y="64" width="2" height="2" fill="#79cd6a"/>
  <rect x="74" y="64" width="2" height="2" fill="#79cd6a"/>
  <rect x="76" y="64" width="2" height="2" fill="#79cd6a"/>
  <rect x="78" y="64" width="2" height="2" fill="#79cd6a"/>
  <rect x="80" y="64" width="2" height="2" fill="#3f8643"/>
  <rect x="82" y="64" width="2" height="2" fill="#3f8643"/>
  <rect x="54" y="66" width="2" height="2" fill="#3f8643"/>
  <rect x="56" y="66" width="2" height="2" fill="#79cd6a"/>
  <rect x="58" y="66" width="2" height="2" fill="#79cd6a"/>
  <rect x="60" y="66" width="2" height="2" fill="#79cd6a"/>
  <rect x="62" y="66" width="2" height="2" fill="#79cd6a"/>
  <rect x="64" y="66" width="2" height="2" fill="#79cd6a"/>
  <rect x="66" y="66" width="2" height="2" fill="#79cd6a"/>
  <rect x="68" y="66" width="2" height="2" fill="#79cd6a"/>
  <rect x="70" y="66" width="2" height="2" fill="#79cd6a"/>
  <rect x="72" y="66" width="2" height="2" fill="#79cd6a"/>
  <rect x="74" y="66" width="2" height="2" fill="#79cd6a"/>
  <rect x="76" y="66" width="2" height="2" fill="#79cd6a"/>
  <rect x="78" y="66" width="2" height="2" fill="#79cd6a"/>
  <rect x="80" y="66" width="2" height="2" fill="#3f8643"/>
  <rect x="56" y="68" width="2" height="2" fill="#3f8643"/>
  <rect x="58" y="68" width="2" height="2" fill="#3f8643"/>
  <rect x="60" y="68" width="2" height="2" fill="#79cd6a"/>
  <rect x="62" y="68" width="2" height="2" fill="#79cd6a"/>
  <rect x="64" y="68" width="2" height="2" fill="#79cd6a"/>
  <rect x="66" y="68" width="2" height="2" fill="#79cd6a"/>
  <rect x="68" y="68" width="2" height="2" fill="#79cd6a"/>
  <rect x="70" y="68" width="2" height="2" fill="#79cd6a"/>
  <rect x="72" y="68" width="2" height="2" fill="#79cd6a"/>
  <rect x="74" y="68" width="2" height="2" fill="#79cd6a"/>
  <rect x="76" y="68" width="2" height="2" fill="#3f8643"/>
  <rect x="78" y="68" width="2" height="2" fill="#3f8643"/>
  <rect x="58" y="70" width="2" height="2" fill="#3f8643"/>
  <rect x="60" y="70" width="2" height="2" fill="#3f8643"/>
  <rect x="62" y="70" width="2" height="2" fill="#3f8643"/>
  <rect x="64" y="70" width="2" height="2" fill="#79cd6a"/>
  <rect x="66" y="70" width="2" height="2" fill="#79cd6a"/>
  <rect x="68" y="70" width="2" height="2" fill="#79cd6a"/>
  <rect x="70" y="70" width="2" height="2" fill="#79cd6a"/>
  <rect x="72" y="70" width="2" height="2" fill="#3f8643"/>
  <rect x="74" y="70" width="2" height="2" fill="#3f8643"/>
  <rect x="76" y="70" width="2" height="2" fill="#3f8643"/>
  <rect x="62" y="72" width="2" height="2" fill="#3f8643"/>
  <rect x="64" y="72" width="2" height="2" fill="#3f8643"/>
  <rect x="66" y="72" width="2" height="2" fill="#3f8643"/>
  <rect x="68" y="72" width="2" height="2" fill="#3f8643"/>
  <rect x="70" y="72" width="2" height="2" fill="#3f8643"/>
  <rect x="72" y="72" width="2" height="2" fill="#3f8643"/>
  <rect x="44" y="16" width="6" height="12" fill="#6d4f31"/>
  <rect x="38" y="22" width="10" height="4" fill="#6abb63"/>
  <rect x="48" y="22" width="10" height="4" fill="#6abb63"/>
</svg>
