<svg xmlns="http://www.w3.org/2000/svg" viewBox="0 0 96 96" role="img" aria-label="color craft icon">
  <rect x="8" y="8" width="80" height="80" rx="16" fill="#eaf2ff"/>
  <g fill="none" stroke="#223458" stroke-width="5" stroke-linecap="round" stroke-linejoin="round">
    
    <path d="M50 28c-13 0-24 9-24 21 0 9 7 17 16 17 5 0 8-2 8-6 0-3-2-5-5-5-2 0-4-1-4-3 0-2 2-4 5-4h6c11 0 18-7 18-16 0-2-1-4-2-4H50Z" fill="#9ec5ff" stroke="#223458"/>
    <circle cx="37" cy="39" r="3" fill="#223458" stroke="none"/>
    <circle cx="31" cy="49" r="3" fill="#223458" stroke="none"/>
    <circle cx="41" cy="58" r="3" fill="#223458" stroke="none"/>
  
  </g>
</svg>
