<svg xmlns="http://www.w3.org/2000/svg" viewBox="0 0 96 96" shape-rendering="crispEdges" role="img">
  <rect x="0" y="0" width="96" height="96" fill="#1a2138"/>
  <rect x="2" y="2" width="92" height="92" fill="#87579c"/>
  <rect x="4" y="4" width="88" height="88" fill="#533464"/>
  <rect x="6" y="6" width="84" height="84" fill="#ddb0f3"/>
  <rect x="6" y="6" width="84" height="6" fill="#ffffff22"/>
  <rect x="6" y="80" width="84" height="6" fill="#00000033"/>
  <rect x="38" y="38" width="2" height="2" fill="#a9763b"/>
  <rect x="40" y="38" width="2" height="2" fill="#a9763b"/>
  <rect x="42" y="38" width="2" height="2" fill="#a9763b"/>
  <rect x="44" y="38" width="2" height="2" fill="#a9763b"/>
  <rect x="46" y="38" width="2" height="2" fill="#a9763b"/>
  <rect x="48" y="38" width="2" height="2" fill="#a9763b"/>
  <rect x="34" y="40" width="2" height="2" fill="#a9763b"/>
  <rect x="36" y="40" width="2" height="2" fill="#a9763b"/>
  <rect x="38" y="40" width="2" height="2" fill="#a9763b"/>
  <rect x="40" y="40" width="2" height="2" fill="#ffd9a0"/>
  <rect x="42" y="40" width="2" height="2" fill="#ffd9a0"/>
  <rect x="44" y="40" width="2" height="2" fill="#ffd9a0"/>
  <rect x="46" y="40" width="2" height="2" fill="#ffd9a0"/>
  <rect x="48" y="40" width="2" height="2" fill="#a9763b"/>
  <rect x="50" y="40" width="2" height="2" fill="#a9763b"/>
  <rect x="52" y="40" width="2" height="2" fill="#a9763b"/>
  <rect x="32" y="42" width="2" height="2" fill="#a9763b"/>
  <rect x="34" y="42" width="2" height="2" fill="#a9763b"/>
  <rect x="36" y="42" width="2" height="2" fill="#fff0d1"/>
  <rect x="38" y="42" width="2" height="2" fill="#fff0d1"/>
  <rect x="40" y="42" width="2" height="2" fill="#fff0d1"/>
  <rect x="42" y="42" width="2" height="2" fill="#ffd9a0"/>
  <rect x="44" y="42" width="2" height="2" fill="#ffd9a0"/>
  <rect x="46" y="42" width="2" height="2" fill="#ffd9a0"/>
  <rect x="48" y="42" width="2" height="2" fill="#ffd9a0"/>
  <rect x="50" y="42" width="2" height="2" fill="#ffd9a0"/>
  <rect x="52" y="42" width="2" height="2" fill="#a9763b"/>
  <rect x="54" y="42" width="2" height="2" fill="#a9763b"/>
  <rect x="30" y="44" width="2" height="2" fill="#a9763b"/>
  <rect x="32" y="44" width="2" height="2" fill="#ffd9a0"/>
  <rect x="34" y="44" width="2" height="2" fill="#fff0d1"/>
  <rect x="36" y="44" width="2" height="2" fill="#fff0d1"/>
  <rect x="38" y="44" width="2" height="2" fill="#fff0d1"/>
  <rect x="40" y="44" width="2" height="2" fill="#fff0d1"/>
  <rect x="42" y="44" width="2" height="2" fill="#ffd9a0"/>
  <rect x="44" y="44" width="2" height="2" fill="#ffd9a0"/>
  <rect x="46" y="44" width="2" height="2" fill="#ffd9a0"/>
  <rect x="48" y="44" width="2" height="2" fill="#ffd9a0"/>
  <rect x="50" y="44" width="2" height="2" fill="#ffd9a0"/>
  <rect x="52" y="44" width="2" height="2" fill="#ffd9a0"/>
  <rect x="54" y="44" width="2" height="2" fill="#ffd9a0"/>
  <rect x="56" y="44" width="2" height="2" fill="#a9763b"/>
  <rect x="28" y="46" width="2" height="2" fill="#a9763b"/>
  <rect x="30" y="46" width="2" height="2" fill="#a9763b"/>
  <rect x="32" y="46" width="2" height="2" fill="#fff0d1"/>
  <rect x="34" y="46" width="2" height="2" fill="#fff0d1"/>
  <rect x="36" y="46" width="2" height="2" fill="#fff0d1"/>
  <rect x="38" y="46" width="2" height="2" fill="#fff0d1"/>
  <rect x="40" y="46" width="2" height="2" fill="#fff0d1"/>
  <rect x="42" y="46" width="2" height="2" fill="#ffd9a0"/>
  <rect x="44" y="46" width="2" height="2" fill="#ffd9a0"/>
  <rect x="46" y="46" width="2" height="2" fill="#ffd9a0"/>
  <rect x="48" y="46" width="2" height="2" fill="#ffd9a0"/>
  <rect x="50" y="46" width="2" height="2" fill="#ffd9a0"/>
  <rect x="52" y="46" width="2" height="2" fill="#ffd9a0"/>
  <rect x="54" y="46" width="2" height="2" fill="#ffd9a0"/>
  <rect x="56" y="46" width="2" height="2" fill="#a9763b"/>
  <rect x="58" y="46" width="2" height="2" fill="#a9763b"/>
  <rect x="28" y="48" width="2" height="2" fill="#a9763b"/>
  <rect x="30" y="48" width="2" height="2" fill="#fff0d1"/>
  <rect x="32" y="48" width="2" height="2" fill="#fff0d1"/>
  <rect x="34" y="48" width="2" height="2" fill="#fff0d1"/>
  <rect x="36" y="48" width="2" height="2" fill="#fff0d1"/>
  <rect x="38" y="48" width="2" height="2" fill="#fff0d1"/>
  <rect x="40" y="48" width="2" height="2" fill="#fff0d1"/>
  <rect x="42" y="48" width="2" height="2" fill="#ffd9a0"/>
  <rect x="44" y="48" width="2" height="2" fill="#ffd9a0"/>
  <rect x="46" y="48" width="2" height="2" fill="#ffd9a0"/>
  <rect x="48" y="48" width="2" height="2" fill="#ffd9a0"/>
  <rect x="50" y="48" width="2" height="2" fill="#ffd9a0"/>
  <rect x="52" y="48" width="2" height="2" fill="#ffd9a0"/>
  <rect x="54" y="48" width="2" height="2" fill="#ffd9a0"/>
  <rect x="56" y="48" width="2" height="2" fill="#ffd9a0"/>
  <rect x="58" y="48" width="2" height="2" fill="#a9763b"/>
  <rect x="26" y="50" width="2" height="2" fill="#a9763b"/>
  <rect x="28" y="50" width="2" height="2" fill="#a9763b"/>
  <rect x="30" y="50" width="2" height="2" fill="#fff0d1"/>
  <rect x="32" y="50" width="2" height="2" fill="#fff0d1"/>
  <rect x="34" y="50" width="2" height="2" fill="#fff0d1"/>
  <rect x="36" y="50" width="2" height="2" fill="#fff0d1"/>
  <rect x="38" y="50" width="2" height="2" fill="#fff0d1"/>
  <rect x="40" y="50" width="2" height="2" fill="#fff0d1"/>
  <rect x="42" y="50" width="2" height="2" fill="#ffd9a0"/>
  <rect x="44" y="50" width="2" height="2" fill="#ffd9a0"/>
  <rect x="46" y="50" width="2" height="2" fill="#ffd9a0"/>
  <rect x="48" y="50" width="2" height="2" fill="#ffd9a0"/>
  <rect x="50" y="50" width="2" height="2" fill="#ffd9a0"/>
  <rect x="52" y="50" width="2" height="2" fill="#ffd9a0"/>
  <rect x="54" y="50" width="2" height="2" fill="#ffd9a0"/>
  <rect x="56" y="50" width="2" height="2" fill="#ffd9a0"/>
  <rect x="58" y="50" width="2" height="2" fill="#a9763b"/>
  <rect x="60" y="50" width="2" height="2" fill="#a9763b"/>
  <rect x="26" y="52" width="2" height="2" fill="#a9763b"/>
  <rect x="28" y="52" width="2" height="2" fill="#ffd9a0"/>
  <rect x="30" y="52" width="2" height="2" fill="#fff0d1"/>
  <rect x="32" y="52" width="2" height="2" fill="#fff0d1"/>
  <rect x="34" y="52" width="2" height="2" fill="#fff0d1"/>
  <rect x="36" y="52" width="2" height="2" fill="#fff0d1"/>
  <rect x="38" y="52" width="2" height="2" fill="#fff0d1"/>
  <rect x="40" y="52" width="2" height="2" fill="#fff0d1"/>
  <rect x="42" y="52" width="2" height="2" fill="#ffd9a0"/>
  <rect x="44" y="52" width="2" height="2" fill="#ffd9a0"/>
  <rect x="46" y="52" width="2" height="2" fill="#ffd9a0"/>
  <rect x="48" y="52" width="2" height="2" fill="#ffd9a0"/>
  <rect x="50" y="52" width="2" height="2" fill="#ffd9a0"/>
  <rect x="52" y="52" width="2" height="2" fill="#ffd9a0"/>
  <rect x="54" y="52" width="2" height="2" fill="#ffd9a0"/>
  <rect x="56" y="52" width="2" height="2" fill="#ffd9a0"/>
  <rect x="58" y="52" width="2" height="2" fill="#ffd9a0"/>
  <rect x="60" y="52" width="2" height="2" fill="#a9763b"/>
  <rect x="26" y="54" width="2" height="2" fill="#a9763b"/>
  <rect x="28" y="54" width="2" height="2" fill="#ffd9a0"/>
  <rect x="30" y="54" width="2" height="2" fill="#ffd9a0"/>
  <rect x="32" y="54" width="2" height="2" fill="#ffd9a0"/>
  <rect x="34" y="54" width="2" height="2" fill="#ffd9a0"/>
  <rect x="36" y="54" width="2" height="2" fill="#ffd9a0"/>
  <rect x="38" y="54" width="2" height="2" fill="#ffd9a0"/>
  <rect x="40" y="54" width="2" height="2" fill="#ffd9a0"/>
  <rect x="42" y="54" width="2" height="2" fill="#ffd9a0"/>
  <rect x="44" y="54" width="2" height="2" fill="#ffd9a0"/>
  <rect x="46" y="54" width="2" height="2" fill="#ffd9a0"/>
  <rect x="48" y="54" width="2" height="2" fill="#ffd9a0"/>
  <rect x="50" y="54" width="2" height="2" fill="#ffd9a0"/>
  <rect x="52" y="54" width="2" height="2" fill="#ffd9a0"/>
  <rect x="54" y="54" width="2" height="2" fill="#ffd9a0"/>
  <rect x="56" y="54" width="2" height="2" fill="#ffd9a0"/>
  <rect x="58" y="54" width="2" height="2" fill="#ffd9a0"/>
  <rect x="60" y="54" width="2" height="2" fill="#a9763b"/>
  <rect x="26" y="56" width="2" height="2" fill="#a9763b"/>
  <rect x="28" y="56" width="2" height="2" fill="#ffd9a0"/>
  <rect x="30" y="56" width="2" height="2" fill="#ffd9a0"/>
  <rect x="32" y="56" width="2" height="2" fill="#ffd9a0"/>
  <rect x="34" y="56" width="2" height="2" fill="#ffd9a0"/>
  <rect x="36" y="56" width="2" height="2" fill="#ffd9a0"/>
  <rect x="38" y="56" width="2" height="2" fill="#ffd9a0"/>
  <rect x="40" y="56" width="2" height="2" fill="#ffd9a0"/>
  <rect x="42" y="56" width="2" height="2" fill="#ffd9a0"/>
  <rect x="44" y="56" width="2" height="2" fill="#ffd9a0"/>
  <rect x="46" y="56" width="2" height="2" fill="#ffd9a0"/>
  <rect x="48" y="56" width="2" height="2" fill="#ffd9a0"/>
  <rect x="50" y="56" width="2" height="2" fill="#ffd9a0"/>
  <rect x="52" y="56" width="2" height="2" fill="#ffd9a0"/>
  <rect x="54" y="56" width="2" height="2" fill="#ffd9a0"/>
  <rect x="56" y="56" width="2" height="2" fill="#ffd9a0"/>
  <rect x="58" y="56" width="2" height="2" fill="#ffd9a0"/>
  <rect x="60" y="56" width="2" height="2" fill="#a9763b"/>
  <rect x="26" y="58" width="2" height="2" fill="#a9763b"/>
  <rect x="28" y="58" width="2" height="2" fill="#ffd9a0"/>
  <rect x="30" y="58" width="2" height="2" fill="#ffd9a0"/>
  <rect x="32" y="58" width="2" height="2" fill="#ffd9a0"/>
  <rect x="34" y="58" width="2" height="2" fill="#ffd9a0"/>
  <rect x="36" y="58" width="2" height="2" fill="#ffd9a0"/>
  <rect x="38" y="58" width="2" height="2" fill="#ffd9a0"/>
  <rect x="40" y="58" width="2" height="2" fill="#ffd9a0"/>
  <rect x="42" y="58" width="2" height="2" fill="#ffd9a0"/>
  <rect x="44" y="58" width="2" height="2" fill="#ffd9a0"/>
  <rect x="46" y="58" width="2" height="2" fill="#ffd9a0"/>
  <rect x="48" y="58" width="2" height="2" fill="#ffd9a0"/>
  <rect x="50" y="58" width="2" height="2" fill="#ffd9a0"/>
  <rect x="52" y="58" width="2" height="2" fill="#ffd9a0"/>
  <rect x="54" y="58" width="2" height="2" fill="#ffd9a0"/>
  <rect x="56" y="58" width="2" height="2" fill="#ffd9a0"/>
  <rect x="58" y="58" width="2" height="2" fill="#ffd9a0"/>
  <rect x="60" y="58" width="2" height="2" fill="#a9763b"/>
  <rect x="26" y="60" width="2" height="2" fill="#a9763b"/>
  <rect x="28" y="60" width="2" height="2" fill="#a9763b"/>
  <rect x="30" y="60" width="2" height="2" fill="#ffd9a0"/>
  <rect x="32" y="60" width="2" height="2" fill="#ffd9a0"/>
  <rect x="34" y="60" width="2" height="2" fill="#ffd9a0"/>
  <rect x="36" y="60" width="2" height="2" fill="#ffd9a0"/>
  <rect x="38" y="60" width="2" height="2" fill="#ffd9a0"/>
  <rect x="40" y="60" width="2" height="2" fill="#ffd9a0"/>
  <rect x="42" y="60" width="2" height="2" fill="#ffd9a0"/>
  <rect x="44" y="60" width="2" height="2" fill="#ffd9a0"/>
  <rect x="46" y="60" width="2" height="2" fill="#ffd9a0"/>
  <rect x="48" y="60" width="2" height="2" fill="#ffd9a0"/>
  <rect x="50" y="60" width="2" height="2" fill="#ffd9a0"/>
  <rect x="52" y="60" width="2" height="2" fill="#ffd9a0"/>
  <rect x="54" y="60" width="2" height="2" fill="#ffd9a0"/>
  <rect x="56" y="60" width="2" height="2" fill="#ffd9a0"/>
  <rect x="58" y="60" width="2" height="2" fill="#a9763b"/>
  <rect x="60" y="60" width="2" height="2" fill="#a9763b"/>
  <rect x="28" y="62" width="2" height="2" fill="#a9763b"/>
  <rect x="30" y="62" width="2" height="2" fill="#ffd9a0"/>
  <rect x="32" y="62" width="2" height="2" fill="#ffd9a0"/>
  <rect x="34" y="62" width="2" height="2" fill="#ffd9a0"/>
  <rect x="36" y="62" width="2" height="2" fill="#ffd9a0"/>
  <rect x="38" y="62" width="2" height="2" fill="#ffd9a0"/>
  <rect x="40" y="62" width="2" height="2" fill="#ffd9a0"/>
  <rect x="42" y="62" width="2" height="2" fill="#ffd9a0"/>
  <rect x="44" y="62" width="2" height="2" fill="#ffd9a0"/>
  <rect x="46" y="62" width="2" height="2" fill="#ffd9a0"/>
  <rect x="48" y="62" width="2" height="2" fill="#ffd9a0"/>
  <rect x="50" y="62" width="2" height="2" fill="#ffd9a0"/>
  <rect x="52" y="62" width="2" height="2" fill="#ffd9a0"/>
  <rect x="54" y="62" width="2" height="2" fill="#ffd9a0"/>
  <rect x="56" y="62" width="2" height="2" fill="#ffd9a0"/>
  <rect x="58" y="62" width="2" height="2" fill="#a9763b"/>
  <rect x="28" y="64" width="2" height="2" fill="#a9763b"/>
  <rect x="30" y="64" width="2" height="2" fill="#a9763b"/>
  <rect x="32" y="64" width="2" height="2" fill="#ffd9a0"/>
  <rect x="34" y="64" width="2" height="2" fill="#ffd9a0"/>
  <rect x="36" y="64" width="2" height="2" fill="#ffd9a0"/>
  <rect x="38" y="64" width="2" height="2" fill="#ffd9a0"/>
  <rect x="40" y="64" width="2" height="2" fill="#ffd9a0"/>
  <rect x="42" y="64" width="2" height="2" fill="#ffd9a0"/>
  <rect x="44" y="64" width="2" height="2" fill="#ffd9a0"/>
  <rect x="46" y="64" width="2" height="2" fill="#ffd9a0"/>
  <rect x="48" y="64" width="2" height="2" fill="#ffd9a0"/>
  <rect x="50" y="64" width="2" height="2" fill="#ffd9a0"/>
  <rect x="52" y="64" width="2" height="2" fill="#ffd9a0"/>
  <rect x="54" y="64" width="2" height="2" fill="#ffd9a0"/>
  <rect x="56" y="64" width="2" height="2" fill="#a9763b"/>
  <rect x="58" y="64" width="2" height="2" fill="#a9763b"/>
  <rect x="30" y="66" width="2" height="2" fill="#a9763b"/>
  <rect x="32" y="66" width="2" height="2" fill="#ffd9a0"/>
  <rect x="34" y="66" width="2" height="2" fill="#ffd9a0"/>
  <rect x="36" y="66" width="2" height="2" fill="#ffd9a0"/>
  <rect x="38" y="66" width="2" height="2" fill="#ffd9a0"/>
  <rect x="40" y="66" width="2" height="2" fill="#ffd9a0"/>
  <rect x="42" y="66" width="2" height="2" fill="#ffd9a0"/>
  <rect x="44" y="66" width="2" height="2" fill="#ffd9a0"/>
  <rect x="46" y="66" width="2" height="2" fill="#ffd9a0"/>
  <rect x="48" y="66" width="2" height="2" fill="#ffd9a0"/>
  <rect x="50" y="66" width="2" height="2" fill="#ffd9a0"/>
  <rect x="52" y="66" width="2" height="2" fill="#ffd9a0"/>
  <rect x="54" y="66" width="2" height="2" fill="#ffd9a0"/>
  <rect x="56" y="66" width="2" height="2" fill="#a9763b"/>
  <rect x="32" y="68" width="2" height="2" fill="#a9763b"/>
  <rect x="34" y="68" width="2" height="2" fill="#a9763b"/>
  <rect x="36" y="68" width="2" height="2" fill="#ffd9a0"/>
  <rect x="38" y="68" width="2" height="2" fill="#ffd9a0"/>
  <rect x="40" y="68" width="2" height="2" fill="#ffd9a0"/>
  <rect x="42" y="68" width="2" height="2" fill="#ffd9a0"/>
  <rect x="44" y="68" width="2" height="2" fill="#ffd9a0"/>
  <rect x="46" y="68" width="2" height="2" fill="#ffd9a0"/>
  <rect x="48" y="68" width="2" height="2" fill="#ffd9a0"/>
  <rect x="50" y="68" width="2" height="2" fill="#ffd9a0"/>
  <rect x="52" y="68" width="2" height="2" fill="#a9763b"/>
  <rect x="54" y="68" width="2" height="2" fill="#a9763b"/>
  <rect x="34" y="70" width="2" height="2" fill="#a9763b"/>
  <rect x="36" y="70" width="2" height="2" fill="#a9763b"/>
  <rect x="38" y="70" width="2" height="2" fill="#a9763b"/>
  <rect x="40" y="70" width="2" height="2" fill="#ffd9a0"/>
  <rect x="42" y="70" width="2" height="2" fill="#ffd9a0"/>
  <rect x="44" y="70" width="2" height="2" fill="#ffd9a0"/>
  <rect x="46" y="70" width="2" height="2" fill="#ffd9a0"/>
  <rect x="48" y="70" width="2" height="2" fill="#a9763b"/>
  <rect x="50" y="70" width="2" height="2" fill="#a9763b"/>
  <rect x="52" y="70" width="2" height="2" fill="#a9763b"/>
  <rect x="38" y="72" width="2" height="2" fill="#a9763b"/>
  <rect x="40" y="72" width="2" height="2" fill="#a9763b"/>
  <rect x="42" y="72" width="2" height="2" fill="#a9763b"/>
  <rect x="44" y="72" width="2" height="2" fill="#a9763b"/>
  <rect x="46" y="72" width="2" height="2" fill="#a9763b"/>
  <rect x="48" y="72" width="2" height="2" fill="#a9763b"/>
  <rect x="34" y="48" width="2" height="2" fill="#a83d47"/>
  <rect x="36" y="48" width="2" height="2" fill="#a83d47"/>
  <rect x="34" y="50" width="2" height="2" fill="#a83d47"/>
  <rect x="36" y="50" width="2" height="2" fill="#a83d47"/>
  <rect x="46" y="44" width="2" height="2" fill="#2f679f"/>
  <rect x="48" y="44" width="2" height="2" fill="#2f679f"/>
  <rect x="46" y="46" width="2" height="2" fill="#2f679f"/>
  <rect x="48" y="46" width="2" height="2" fill="#2f679f"/>
  <rect x="52" y="54" width="2" height="2" fill="#3f8746"/>
  <rect x="54" y="54" width="2" height="2" fill="#3f8746"/>
  <rect x="52" y="56" width="2" height="2" fill="#3f8746"/>
  <rect x="54" y="56" width="2" height="2" fill="#3f8746"/>
  <rect x="40" y="62" width="2" height="2" fill="#6f4a92"/>
  <rect x="42" y="62" width="2" height="2" fill="#6f4a92"/>
  <rect x="40" y="64" width="2" height="2" fill="#6f4a92"/>
  <rect x="42" y="64" width="2" height="2" fill="#6f4a92"/>
  <rect x="56" y="28" width="20" height="4" fill="#d89b62"/>
  <rect x="68" y="24" width="4" height="4" fill="#d89b62"/>
  <rect x="72" y="22" width="10" height="8" fill="#8ec6ff"/>
  <rect x="78" y="22" width="4" height="8" fill="#5f95cc"/>
</svg>
