<svg xmlns="http://www.w3.org/2000/svg" viewBox="0 0 96 96" role="img" aria-label="color craft icon">
  <defs>
    <linearGradient id="bg" x1="0" y1="0" x2="1" y2="1">
      <stop offset="0" stop-color="#f7c2ff"/>
      <stop offset="1" stop-color="#de92f5"/>
    </linearGradient>
  </defs>
  <rect x="6" y="6" width="84" height="84" rx="18" fill="url(#bg)" stroke="#111827" stroke-width="4"/>
  <rect x="12" y="12" width="72" height="14" rx="8" fill="#ffffff26"/>
  
  <path d="M50 28c-12 0-22 9-22 20 0 8 6 15 14 15 4 0 7-2 7-5 0-3-2-4-4-4-2 0-4-1-4-3 0-2 2-3 4-3h6c10 0 17-6 17-15 0-3-1-5-3-5H50Z" fill="#fde68a" stroke="#111827" stroke-width="3" stroke-linejoin="round"/>
  <circle cx="37" cy="39" r="2.7" fill="#38bdf8"/>
  <circle cx="32" cy="49" r="2.7" fill="#34d399"/>
  <circle cx="41" cy="57" r="2.7" fill="#f87171"/>
  <path d="M61 58l8 8" fill="none" stroke="#111827" stroke-width="3" stroke-linecap="round"/>

</svg>
