<svg xmlns="http://www.w3.org/2000/svg" viewBox="0 0 96 96" shape-rendering="crispEdges" role="img">
  <rect x="0" y="0" width="96" height="96" fill="#1a2138"/>
  <rect x="2" y="2" width="92" height="92" fill="#2f7c5c"/>
  <rect x="4" y="4" width="88" height="88" fill="#245542"/>
  <rect x="6" y="6" width="84" height="84" fill="#74d6a2"/>
  <rect x="6" y="6" width="84" height="6" fill="#ffffff22"/>
  <rect x="6" y="80" width="84" height="6" fill="#00000033"/>
  <rect x="48" y="14" width="2" height="14" fill="#e7f5ff"/>
  <rect x="46" y="28" width="6" height="2" fill="#e7f5ff"/>
  <rect x="44" y="30" width="10" height="2" fill="#e7f5ff"/>
  <rect x="42" y="54" width="2" height="2" fill="#bc3448"/>
  <rect x="44" y="54" width="2" height="2" fill="#bc3448"/>
  <rect x="46" y="54" width="2" height="2" fill="#bc3448"/>
  <rect x="48" y="54" width="2" height="2" fill="#bc3448"/>
  <rect x="50" y="54" width="2" height="2" fill="#bc3448"/>
  <rect x="52" y="54" width="2" height="2" fill="#bc3448"/>
  <rect x="40" y="56" width="2" height="2" fill="#bc3448"/>
  <rect x="42" y="56" width="2" height="2" fill="#bc3448"/>
  <rect x="44" y="56" width="2" height="2" fill="#ffafbd"/>
  <rect x="46" y="56" width="2" height="2" fill="#ffafbd"/>
  <rect x="48" y="56" width="2" height="2" fill="#ff6d7f"/>
  <rect x="50" y="56" width="2" height="2" fill="#ff6d7f"/>
  <rect x="52" y="56" width="2" height="2" fill="#bc3448"/>
  <rect x="54" y="56" width="2" height="2" fill="#bc3448"/>
  <rect x="38" y="58" width="2" height="2" fill="#bc3448"/>
  <rect x="40" y="58" width="2" height="2" fill="#bc3448"/>
  <rect x="42" y="58" width="2" height="2" fill="#ffafbd"/>
  <rect x="44" y="58" width="2" height="2" fill="#ffafbd"/>
  <rect x="46" y="58" width="2" height="2" fill="#ffafbd"/>
  <rect x="48" y="58" width="2" height="2" fill="#ff6d7f"/>
  <rect x="50" y="58" width="2" height="2" fill="#ff6d7f"/>
  <rect x="52" y="58" width="2" height="2" fill="#ff6d7f"/>
  <rect x="54" y="58" width="2" height="2" fill="#bc3448"/>
  <rect x="56" y="58" width="2" height="2" fill="#bc3448"/>
  <rect x="38" y="60" width="2" height="2" fill="#bc3448"/>
  <rect x="40" y="60" width="2" height="2" fill="#ffafbd"/>
  <rect x="42" y="60" width="2" height="2" fill="#ffafbd"/>
  <rect x="44" y="60" width="2" height="2" fill="#ffafbd"/>
  <rect x="46" y="60" width="2" height="2" fill="#ffafbd"/>
  <rect x="48" y="60" width="2" height="2" fill="#ff6d7f"/>
  <rect x="50" y="60" width="2" height="2" fill="#ff6d7f"/>
  <rect x="52" y="60" width="2" height="2" fill="#ff6d7f"/>
  <rect x="54" y="60" width="2" height="2" fill="#ff6d7f"/>
  <rect x="56" y="60" width="2" height="2" fill="#bc3448"/>
  <rect x="38" y="62" width="2" height="2" fill="#bc3448"/>
  <rect x="40" y="62" width="2" height="2" fill="#ffafbd"/>
  <rect x="42" y="62" width="2" height="2" fill="#ffafbd"/>
  <rect x="44" y="62" width="2" height="2" fill="#ffafbd"/>
  <rect x="46" y="62" width="2" height="2" fill="#ffafbd"/>
  <rect x="48" y="62" width="2" height="2" fill="#ff6d7f"/>
  <rect x="50" y="62" width="2" height="2" fill="#ff6d7f"/>
  <rect x="52" y="62" width="2" height="2" fill="#ff6d7f"/>
  <rect x="54" y="62" width="2" height="2" fill="#ff6d7f"/>
  <rect x="56" y="62" width="2" height="2" fill="#bc3448"/>
  <rect x="38" y="64" width="2" height="2" fill="#bc3448"/>
  <rect x="40" y="64" width="2" height="2" fill="#ff6d7f"/>
  <rect x="42" y="64" width="2" height="2" fill="#ff6d7f"/>
  <rect x="44" y="64" width="2" height="2" fill="#ff6d7f"/>
  <rect x="46" y="64" width="2" height="2" fill="#ff6d7f"/>
  <rect x="48" y="64" width="2" height="2" fill="#ff6d7f"/>
  <rect x="50" y="64" width="2" height="2" fill="#ff6d7f"/>
  <rect x="52" y="64" width="2" height="2" fill="#ff6d7f"/>
  <rect x="54" y="64" width="2" height="2" fill="#ff6d7f"/>
  <rect x="56" y="64" width="2" height="2" fill="#bc3448"/>
  <rect x="38" y="66" width="2" height="2" fill="#bc3448"/>
  <rect x="40" y="66" width="2" height="2" fill="#ff6d7f"/>
  <rect x="42" y="66" width="2" height="2" fill="#ff6d7f"/>
  <rect x="44" y="66" width="2" height="2" fill="#ff6d7f"/>
  <rect x="46" y="66" width="2" height="2" fill="#ff6d7f"/>
  <rect x="48" y="66" width="2" height="2" fill="#ff6d7f"/>
  <rect x="50" y="66" width="2" height="2" fill="#ff6d7f"/>
  <rect x="52" y="66" width="2" height="2" fill="#ff6d7f"/>
  <rect x="54" y="66" width="2" height="2" fill="#ff6d7f"/>
  <rect x="56" y="66" width="2" height="2" fill="#bc3448"/>
  <rect x="38" y="68" width="2" height="2" fill="#bc3448"/>
  <rect x="40" y="68" width="2" height="2" fill="#bc3448"/>
  <rect x="42" y="68" width="2" height="2" fill="#ff6d7f"/>
  <rect x="44" y="68" width="2" height="2" fill="#ff6d7f"/>
  <rect x="46" y="68" width="2" height="2" fill="#ff6d7f"/>
  <rect x="48" y="68" width="2" height="2" fill="#ff6d7f"/>
  <rect x="50" y="68" width="2" height="2" fill="#ff6d7f"/>
  <rect x="52" y="68" width="2" height="2" fill="#ff6d7f"/>
  <rect x="54" y="68" width="2" height="2" fill="#bc3448"/>
  <rect x="56" y="68" width="2" height="2" fill="#bc3448"/>
  <rect x="40" y="70" width="2" height="2" fill="#bc3448"/>
  <rect x="42" y="70" width="2" height="2" fill="#bc3448"/>
  <rect x="44" y="70" width="2" height="2" fill="#ff6d7f"/>
  <rect x="46" y="70" width="2" height="2" fill="#ff6d7f"/>
  <rect x="48" y="70" width="2" height="2" fill="#ff6d7f"/>
  <rect x="50" y="70" width="2" height="2" fill="#ff6d7f"/>
  <rect x="52" y="70" width="2" height="2" fill="#bc3448"/>
  <rect x="54" y="70" width="2" height="2" fill="#bc3448"/>
  <rect x="42" y="72" width="2" height="2" fill="#bc3448"/>
  <rect x="44" y="72" width="2" height="2" fill="#bc3448"/>
  <rect x="46" y="72" width="2" height="2" fill="#bc3448"/>
  <rect x="48" y="72" width="2" height="2" fill="#bc3448"/>
  <rect x="50" y="72" width="2" height="2" fill="#bc3448"/>
  <rect x="52" y="72" width="2" height="2" fill="#bc3448"/>
  <rect x="30" y="68" width="2" height="2" fill="#b48326"/>
  <rect x="32" y="68" width="2" height="2" fill="#b48326"/>
  <rect x="34" y="68" width="2" height="2" fill="#b48326"/>
  <rect x="36" y="68" width="2" height="2" fill="#b48326"/>
  <rect x="38" y="68" width="2" height="2" fill="#b48326"/>
  <rect x="40" y="68" width="2" height="2" fill="#b48326"/>
  <rect x="28" y="70" width="2" height="2" fill="#b48326"/>
  <rect x="30" y="70" width="2" height="2" fill="#b48326"/>
  <rect x="32" y="70" width="2" height="2" fill="#ffd15f"/>
  <rect x="34" y="70" width="2" height="2" fill="#fff0a9"/>
  <rect x="36" y="70" width="2" height="2" fill="#ffd15f"/>
  <rect x="38" y="70" width="2" height="2" fill="#ffd15f"/>
  <rect x="40" y="70" width="2" height="2" fill="#b48326"/>
  <rect x="42" y="70" width="2" height="2" fill="#b48326"/>
  <rect x="28" y="72" width="2" height="2" fill="#b48326"/>
  <rect x="30" y="72" width="2" height="2" fill="#ffd15f"/>
  <rect x="32" y="72" width="2" height="2" fill="#fff0a9"/>
  <rect x="34" y="72" width="2" height="2" fill="#fff0a9"/>
  <rect x="36" y="72" width="2" height="2" fill="#ffd15f"/>
  <rect x="38" y="72" width="2" height="2" fill="#ffd15f"/>
  <rect x="40" y="72" width="2" height="2" fill="#ffd15f"/>
  <rect x="42" y="72" width="2" height="2" fill="#b48326"/>
  <rect x="28" y="74" width="2" height="2" fill="#b48326"/>
  <rect x="30" y="74" width="2" height="2" fill="#fff0a9"/>
  <rect x="32" y="74" width="2" height="2" fill="#fff0a9"/>
  <rect x="34" y="74" width="2" height="2" fill="#fff0a9"/>
  <rect x="36" y="74" width="2" height="2" fill="#ffd15f"/>
  <rect x="38" y="74" width="2" height="2" fill="#ffd15f"/>
  <rect x="40" y="74" width="2" height="2" fill="#ffd15f"/>
  <rect x="42" y="74" width="2" height="2" fill="#b48326"/>
  <rect x="28" y="76" width="2" height="2" fill="#b48326"/>
  <rect x="30" y="76" width="2" height="2" fill="#ffd15f"/>
  <rect x="32" y="76" width="2" height="2" fill="#ffd15f"/>
  <rect x="34" y="76" width="2" height="2" fill="#ffd15f"/>
  <rect x="36" y="76" width="2" height="2" fill="#ffd15f"/>
  <rect x="38" y="76" width="2" height="2" fill="#ffd15f"/>
  <rect x="40" y="76" width="2" height="2" fill="#ffd15f"/>
  <rect x="42" y="76" width="2" height="2" fill="#b48326"/>
  <rect x="28" y="78" width="2" height="2" fill="#b48326"/>
  <rect x="30" y="78" width="2" height="2" fill="#ffd15f"/>
  <rect x="32" y="78" width="2" height="2" fill="#ffd15f"/>
  <rect x="34" y="78" width="2" height="2" fill="#ffd15f"/>
  <rect x="36" y="78" width="2" height="2" fill="#ffd15f"/>
  <rect x="38" y="78" width="2" height="2" fill="#ffd15f"/>
  <rect x="40" y="78" width="2" height="2" fill="#ffd15f"/>
  <rect x="42" y="78" width="2" height="2" fill="#b48326"/>
  <rect x="28" y="80" width="2" height="2" fill="#b48326"/>
  <rect x="30" y="80" width="2" height="2" fill="#b48326"/>
  <rect x="32" y="80" width="2" height="2" fill="#ffd15f"/>
  <rect x="34" y="80" width="2" height="2" fill="#ffd15f"/>
  <rect x="36" y="80" width="2" height="2" fill="#ffd15f"/>
  <rect x="38" y="80" width="2" height="2" fill="#ffd15f"/>
  <rect x="40" y="80" width="2" height="2" fill="#b48326"/>
  <rect x="42" y="80" width="2" height="2" fill="#b48326"/>
  <rect x="30" y="82" width="2" height="2" fill="#b48326"/>
  <rect x="32" y="82" width="2" height="2" fill="#b48326"/>
  <rect x="34" y="82" width="2" height="2" fill="#b48326"/>
  <rect x="36" y="82" width="2" height="2" fill="#b48326"/>
  <rect x="38" y="82" width="2" height="2" fill="#b48326"/>
  <rect x="40" y="82" width="2" height="2" fill="#b48326"/>
  <rect x="54" y="68" width="2" height="2" fill="#3e7e39"/>
  <rect x="56" y="68" width="2" height="2" fill="#3e7e39"/>
  <rect x="58" y="68" width="2" height="2" fill="#3e7e39"/>
  <rect x="60" y="68" width="2" height="2" fill="#3e7e39"/>
  <rect x="52" y="70" width="2" height="2" fill="#3e7e39"/>
  <rect x="54" y="70" width="2" height="2" fill="#3e7e39"/>
  <rect x="56" y="70" width="2" height="2" fill="#7fcb66"/>
  <rect x="58" y="70" width="2" height="2" fill="#7fcb66"/>
  <rect x="60" y="70" width="2" height="2" fill="#3e7e39"/>
  <rect x="62" y="70" width="2" height="2" fill="#3e7e39"/>
  <rect x="50" y="72" width="2" height="2" fill="#3e7e39"/>
  <rect x="52" y="72" width="2" height="2" fill="#7fcb66"/>
  <rect x="54" y="72" width="2" height="2" fill="#b8e89e"/>
  <rect x="56" y="72" width="2" height="2" fill="#b8e89e"/>
  <rect x="58" y="72" width="2" height="2" fill="#7fcb66"/>
  <rect x="60" y="72" width="2" height="2" fill="#7fcb66"/>
  <rect x="62" y="72" width="2" height="2" fill="#7fcb66"/>
  <rect x="64" y="72" width="2" height="2" fill="#3e7e39"/>
  <rect x="48" y="74" width="2" height="2" fill="#3e7e39"/>
  <rect x="50" y="74" width="2" height="2" fill="#3e7e39"/>
  <rect x="52" y="74" width="2" height="2" fill="#b8e89e"/>
  <rect x="54" y="74" width="2" height="2" fill="#b8e89e"/>
  <rect x="56" y="74" width="2" height="2" fill="#b8e89e"/>
  <rect x="58" y="74" width="2" height="2" fill="#7fcb66"/>
  <rect x="60" y="74" width="2" height="2" fill="#7fcb66"/>
  <rect x="62" y="74" width="2" height="2" fill="#7fcb66"/>
  <rect x="64" y="74" width="2" height="2" fill="#3e7e39"/>
  <rect x="66" y="74" width="2" height="2" fill="#3e7e39"/>
  <rect x="48" y="76" width="2" height="2" fill="#3e7e39"/>
  <rect x="50" y="76" width="2" height="2" fill="#7fcb66"/>
  <rect x="52" y="76" width="2" height="2" fill="#b8e89e"/>
  <rect x="54" y="76" width="2" height="2" fill="#b8e89e"/>
  <rect x="56" y="76" width="2" height="2" fill="#b8e89e"/>
  <rect x="58" y="76" width="2" height="2" fill="#7fcb66"/>
  <rect x="60" y="76" width="2" height="2" fill="#7fcb66"/>
  <rect x="62" y="76" width="2" height="2" fill="#7fcb66"/>
  <rect x="64" y="76" width="2" height="2" fill="#7fcb66"/>
  <rect x="66" y="76" width="2" height="2" fill="#3e7e39"/>
  <rect x="48" y="78" width="2" height="2" fill="#3e7e39"/>
  <rect x="50" y="78" width="2" height="2" fill="#7fcb66"/>
  <rect x="52" y="78" width="2" height="2" fill="#7fcb66"/>
  <rect x="54" y="78" width="2" height="2" fill="#7fcb66"/>
  <rect x="56" y="78" width="2" height="2" fill="#7fcb66"/>
  <rect x="58" y="78" width="2" height="2" fill="#7fcb66"/>
  <rect x="60" y="78" width="2" height="2" fill="#7fcb66"/>
  <rect x="62" y="78" width="2" height="2" fill="#7fcb66"/>
  <rect x="64" y="78" width="2" height="2" fill="#7fcb66"/>
  <rect x="66" y="78" width="2" height="2" fill="#3e7e39"/>
  <rect x="48" y="80" width="2" height="2" fill="#3e7e39"/>
  <rect x="50" y="80" width="2" height="2" fill="#3e7e39"/>
  <rect x="52" y="80" width="2" height="2" fill="#7fcb66"/>
  <rect x="54" y="80" width="2" height="2" fill="#7fcb66"/>
  <rect x="56" y="80" width="2" height="2" fill="#7fcb66"/>
  <rect x="58" y="80" width="2" height="2" fill="#7fcb66"/>
  <rect x="60" y="80" width="2" height="2" fill="#7fcb66"/>
  <rect x="62" y="80" width="2" height="2" fill="#7fcb66"/>
  <rect x="64" y="80" width="2" height="2" fill="#3e7e39"/>
  <rect x="66" y="80" width="2" height="2" fill="#3e7e39"/>
  <rect x="50" y="82" width="2" height="2" fill="#3e7e39"/>
  <rect x="52" y="82" width="2" height="2" fill="#7fcb66"/>
  <rect x="54" y="82" width="2" height="2" fill="#7fcb66"/>
  <rect x="56" y="82" width="2" height="2" fill="#7fcb66"/>
  <rect x="58" y="82" width="2" height="2" fill="#7fcb66"/>
  <rect x="60" y="82" width="2" height="2" fill="#7fcb66"/>
  <rect x="62" y="82" width="2" height="2" fill="#7fcb66"/>
  <rect x="64" y="82" width="2" height="2" fill="#3e7e39"/>
  <rect x="52" y="84" width="2" height="2" fill="#3e7e39"/>
  <rect x="54" y="84" width="2" height="2" fill="#3e7e39"/>
  <rect x="56" y="84" width="2" height="2" fill="#7fcb66"/>
  <rect x="58" y="84" width="2" height="2" fill="#7fcb66"/>
  <rect x="60" y="84" width="2" height="2" fill="#3e7e39"/>
  <rect x="62" y="84" width="2" height="2" fill="#3e7e39"/>
  <rect x="54" y="86" width="2" height="2" fill="#3e7e39"/>
  <rect x="56" y="86" width="2" height="2" fill="#3e7e39"/>
  <rect x="58" y="86" width="2" height="2" fill="#3e7e39"/>
  <rect x="60" y="86" width="2" height="2" fill="#3e7e39"/>
  <rect x="32" y="44" width="4" height="2" fill="#4d8d4a"/>
  <rect x="60" y="48" width="4" height="2" fill="#4d8d4a"/>
</svg>
