<svg xmlns="http://www.w3.org/2000/svg" viewBox="0 0 96 96" shape-rendering="crispEdges" role="img">
  <rect x="0" y="0" width="96" height="96" fill="#1a2138"/>
  <rect x="2" y="2" width="92" height="92" fill="#96673b"/>
  <rect x="4" y="4" width="88" height="88" fill="#694424"/>
  <rect x="6" y="6" width="84" height="84" fill="#ffd08e"/>
  <rect x="6" y="6" width="84" height="6" fill="#ffffff22"/>
  <rect x="6" y="80" width="84" height="6" fill="#00000033"/>
  <rect x="40" y="20" width="16" height="4" fill="#ffe6ad"/>
  <rect x="42" y="24" width="12" height="4" fill="#e4c07b"/>
  <rect x="38" y="28" width="20" height="28" fill="#ffd47f"/>
  <rect x="40" y="30" width="16" height="24" fill="#fff2c8"/>
  <rect x="42" y="56" width="12" height="6" fill="#d29545"/>
  <rect x="46" y="62" width="4" height="14" fill="#9f6d38"/>
  <rect x="22" y="40" width="2" height="2" fill="#6e4a28"/>
  <rect x="20" y="38" width="2" height="2" fill="#ffe5bd"/>
  <rect x="24" y="40" width="2" height="2" fill="#6e4a28"/>
  <rect x="22" y="38" width="2" height="2" fill="#ffe5bd"/>
  <rect x="26" y="40" width="2" height="2" fill="#6e4a28"/>
  <rect x="24" y="38" width="2" height="2" fill="#ffe5bd"/>
  <rect x="20" y="42" width="2" height="2" fill="#6e4a28"/>
  <rect x="18" y="40" width="2" height="2" fill="#ffe5bd"/>
  <rect x="28" y="42" width="2" height="2" fill="#6e4a28"/>
  <rect x="26" y="40" width="2" height="2" fill="#ffe5bd"/>
  <rect x="20" y="44" width="2" height="2" fill="#6e4a28"/>
  <rect x="18" y="42" width="2" height="2" fill="#ffe5bd"/>
  <rect x="28" y="44" width="2" height="2" fill="#6e4a28"/>
  <rect x="26" y="42" width="2" height="2" fill="#ffe5bd"/>
  <rect x="20" y="46" width="2" height="2" fill="#6e4a28"/>
  <rect x="18" y="44" width="2" height="2" fill="#ffe5bd"/>
  <rect x="22" y="46" width="2" height="2" fill="#6e4a28"/>
  <rect x="20" y="44" width="2" height="2" fill="#ffe5bd"/>
  <rect x="24" y="46" width="2" height="2" fill="#6e4a28"/>
  <rect x="22" y="44" width="2" height="2" fill="#ffe5bd"/>
  <rect x="26" y="46" width="2" height="2" fill="#6e4a28"/>
  <rect x="24" y="44" width="2" height="2" fill="#ffe5bd"/>
  <rect x="28" y="46" width="2" height="2" fill="#6e4a28"/>
  <rect x="26" y="44" width="2" height="2" fill="#ffe5bd"/>
  <rect x="20" y="48" width="2" height="2" fill="#6e4a28"/>
  <rect x="18" y="46" width="2" height="2" fill="#ffe5bd"/>
  <rect x="28" y="48" width="2" height="2" fill="#6e4a28"/>
  <rect x="26" y="46" width="2" height="2" fill="#ffe5bd"/>
  <rect x="20" y="50" width="2" height="2" fill="#6e4a28"/>
  <rect x="18" y="48" width="2" height="2" fill="#ffe5bd"/>
  <rect x="28" y="50" width="2" height="2" fill="#6e4a28"/>
  <rect x="26" y="48" width="2" height="2" fill="#ffe5bd"/>
  <rect x="20" y="52" width="2" height="2" fill="#6e4a28"/>
  <rect x="18" y="50" width="2" height="2" fill="#ffe5bd"/>
  <rect x="28" y="52" width="2" height="2" fill="#6e4a28"/>
  <rect x="26" y="50" width="2" height="2" fill="#ffe5bd"/>
  <rect x="68" y="40" width="2" height="2" fill="#6e4a28"/>
  <rect x="66" y="38" width="2" height="2" fill="#ffe5bd"/>
  <rect x="70" y="40" width="2" height="2" fill="#6e4a28"/>
  <rect x="68" y="38" width="2" height="2" fill="#ffe5bd"/>
  <rect x="72" y="40" width="2" height="2" fill="#6e4a28"/>
  <rect x="70" y="38" width="2" height="2" fill="#ffe5bd"/>
  <rect x="74" y="40" width="2" height="2" fill="#6e4a28"/>
  <rect x="72" y="38" width="2" height="2" fill="#ffe5bd"/>
  <rect x="68" y="42" width="2" height="2" fill="#6e4a28"/>
  <rect x="66" y="40" width="2" height="2" fill="#ffe5bd"/>
  <rect x="76" y="42" width="2" height="2" fill="#6e4a28"/>
  <rect x="74" y="40" width="2" height="2" fill="#ffe5bd"/>
  <rect x="68" y="44" width="2" height="2" fill="#6e4a28"/>
  <rect x="66" y="42" width="2" height="2" fill="#ffe5bd"/>
  <rect x="76" y="44" width="2" height="2" fill="#6e4a28"/>
  <rect x="74" y="42" width="2" height="2" fill="#ffe5bd"/>
  <rect x="68" y="46" width="2" height="2" fill="#6e4a28"/>
  <rect x="66" y="44" width="2" height="2" fill="#ffe5bd"/>
  <rect x="70" y="46" width="2" height="2" fill="#6e4a28"/>
  <rect x="68" y="44" width="2" height="2" fill="#ffe5bd"/>
  <rect x="72" y="46" width="2" height="2" fill="#6e4a28"/>
  <rect x="70" y="44" width="2" height="2" fill="#ffe5bd"/>
  <rect x="74" y="46" width="2" height="2" fill="#6e4a28"/>
  <rect x="72" y="44" width="2" height="2" fill="#ffe5bd"/>
  <rect x="68" y="48" width="2" height="2" fill="#6e4a28"/>
  <rect x="66" y="46" width="2" height="2" fill="#ffe5bd"/>
  <rect x="76" y="48" width="2" height="2" fill="#6e4a28"/>
  <rect x="74" y="46" width="2" height="2" fill="#ffe5bd"/>
  <rect x="68" y="50" width="2" height="2" fill="#6e4a28"/>
  <rect x="66" y="48" width="2" height="2" fill="#ffe5bd"/>
  <rect x="76" y="50" width="2" height="2" fill="#6e4a28"/>
  <rect x="74" y="48" width="2" height="2" fill="#ffe5bd"/>
  <rect x="68" y="52" width="2" height="2" fill="#6e4a28"/>
  <rect x="66" y="50" width="2" height="2" fill="#ffe5bd"/>
  <rect x="70" y="52" width="2" height="2" fill="#6e4a28"/>
  <rect x="68" y="50" width="2" height="2" fill="#ffe5bd"/>
  <rect x="72" y="52" width="2" height="2" fill="#6e4a28"/>
  <rect x="70" y="50" width="2" height="2" fill="#ffe5bd"/>
  <rect x="74" y="52" width="2" height="2" fill="#6e4a28"/>
  <rect x="72" y="50" width="2" height="2" fill="#ffe5bd"/>
</svg>
