<svg xmlns="http://www.w3.org/2000/svg" viewBox="0 0 96 96" shape-rendering="crispEdges" role="img">
  <rect x="0" y="0" width="96" height="96" fill="#1a2138"/>
  <rect x="2" y="2" width="92" height="92" fill="#4c8885"/>
  <rect x="4" y="4" width="88" height="88" fill="#2a5452"/>
  <rect x="6" y="6" width="84" height="84" fill="#9be0dc"/>
  <rect x="6" y="6" width="84" height="6" fill="#ffffff22"/>
  <rect x="6" y="80" width="84" height="6" fill="#00000033"/>
  <rect x="16" y="66" width="12" height="12" fill="#f7d274"/>
  <rect x="28" y="54" width="12" height="12" fill="#f3b06e"/>
  <rect x="40" y="42" width="12" height="12" fill="#7fc3ff"/>
  <rect x="52" y="30" width="12" height="12" fill="#a89df6"/>
  <rect x="64" y="18" width="12" height="12" fill="#89dca1"/>
  <rect x="68" y="12" width="2" height="2" fill="#bd8e2e"/>
  <rect x="70" y="12" width="2" height="2" fill="#bd8e2e"/>
  <rect x="72" y="12" width="2" height="2" fill="#bd8e2e"/>
  <rect x="74" y="12" width="2" height="2" fill="#bd8e2e"/>
  <rect x="66" y="14" width="2" height="2" fill="#bd8e2e"/>
  <rect x="68" y="14" width="2" height="2" fill="#fff1b5"/>
  <rect x="70" y="14" width="2" height="2" fill="#fff9d8"/>
  <rect x="72" y="14" width="2" height="2" fill="#fff1b5"/>
  <rect x="74" y="14" width="2" height="2" fill="#fff1b5"/>
  <rect x="76" y="14" width="2" height="2" fill="#bd8e2e"/>
  <rect x="64" y="16" width="2" height="2" fill="#bd8e2e"/>
  <rect x="66" y="16" width="2" height="2" fill="#fff1b5"/>
  <rect x="68" y="16" width="2" height="2" fill="#fff9d8"/>
  <rect x="70" y="16" width="2" height="2" fill="#fff9d8"/>
  <rect x="72" y="16" width="2" height="2" fill="#fff1b5"/>
  <rect x="74" y="16" width="2" height="2" fill="#fff1b5"/>
  <rect x="76" y="16" width="2" height="2" fill="#fff1b5"/>
  <rect x="78" y="16" width="2" height="2" fill="#bd8e2e"/>
  <rect x="64" y="18" width="2" height="2" fill="#bd8e2e"/>
  <rect x="66" y="18" width="2" height="2" fill="#fff9d8"/>
  <rect x="68" y="18" width="2" height="2" fill="#fff9d8"/>
  <rect x="70" y="18" width="2" height="2" fill="#fff9d8"/>
  <rect x="72" y="18" width="2" height="2" fill="#fff1b5"/>
  <rect x="74" y="18" width="2" height="2" fill="#fff1b5"/>
  <rect x="76" y="18" width="2" height="2" fill="#fff1b5"/>
  <rect x="78" y="18" width="2" height="2" fill="#bd8e2e"/>
  <rect x="64" y="20" width="2" height="2" fill="#bd8e2e"/>
  <rect x="66" y="20" width="2" height="2" fill="#fff1b5"/>
  <rect x="68" y="20" width="2" height="2" fill="#fff1b5"/>
  <rect x="70" y="20" width="2" height="2" fill="#fff1b5"/>
  <rect x="72" y="20" width="2" height="2" fill="#fff1b5"/>
  <rect x="74" y="20" width="2" height="2" fill="#fff1b5"/>
  <rect x="76" y="20" width="2" height="2" fill="#fff1b5"/>
  <rect x="78" y="20" width="2" height="2" fill="#bd8e2e"/>
  <rect x="64" y="22" width="2" height="2" fill="#bd8e2e"/>
  <rect x="66" y="22" width="2" height="2" fill="#fff1b5"/>
  <rect x="68" y="22" width="2" height="2" fill="#fff1b5"/>
  <rect x="70" y="22" width="2" height="2" fill="#fff1b5"/>
  <rect x="72" y="22" width="2" height="2" fill="#fff1b5"/>
  <rect x="74" y="22" width="2" height="2" fill="#fff1b5"/>
  <rect x="76" y="22" width="2" height="2" fill="#fff1b5"/>
  <rect x="78" y="22" width="2" height="2" fill="#bd8e2e"/>
  <rect x="66" y="24" width="2" height="2" fill="#bd8e2e"/>
  <rect x="68" y="24" width="2" height="2" fill="#fff1b5"/>
  <rect x="70" y="24" width="2" height="2" fill="#fff1b5"/>
  <rect x="72" y="24" width="2" height="2" fill="#fff1b5"/>
  <rect x="74" y="24" width="2" height="2" fill="#fff1b5"/>
  <rect x="76" y="24" width="2" height="2" fill="#bd8e2e"/>
  <rect x="68" y="26" width="2" height="2" fill="#bd8e2e"/>
  <rect x="70" y="26" width="2" height="2" fill="#bd8e2e"/>
  <rect x="72" y="26" width="2" height="2" fill="#bd8e2e"/>
  <rect x="74" y="26" width="2" height="2" fill="#bd8e2e"/>
  <rect x="22" y="18" width="20" height="20" fill="#2c4368"/>
  <rect x="26" y="22" width="12" height="12" fill="#adc3ff"/>
  <rect x="30" y="26" width="4" height="4" fill="#2c4368"/>
</svg>
