<svg xmlns="http://www.w3.org/2000/svg" viewBox="0 0 96 96" shape-rendering="crispEdges" role="img">
  <rect x="0" y="0" width="96" height="96" fill="#1a2138"/>
  <rect x="2" y="2" width="92" height="92" fill="#456da8"/>
  <rect x="4" y="4" width="88" height="88" fill="#223f68"/>
  <rect x="6" y="6" width="84" height="84" fill="#9bc3ff"/>
  <rect x="6" y="6" width="84" height="6" fill="#ffffff22"/>
  <rect x="6" y="80" width="84" height="6" fill="#00000033"/>

  <rect x="14" y="70" width="68" height="12" fill="#79be55"/>
  <rect x="46" y="40" width="4" height="32" fill="#4b8740"/>

  <rect x="38" y="28" width="20" height="20" fill="#ffd56f"/>
  <rect x="42" y="24" width="12" height="6" fill="#ffd56f"/>
  <rect x="36" y="34" width="4" height="8" fill="#fff2b8"/>
  <rect x="56" y="34" width="4" height="8" fill="#fff2b8"/>
  <rect x="44" y="46" width="8" height="4" fill="#e2984f"/>

  <rect x="22" y="18" width="4" height="18" fill="#f7fbff"/>
  <rect x="20" y="18" width="8" height="4" fill="#f7fbff"/>

  <rect x="32" y="18" width="14" height="4" fill="#f7fbff"/>
  <rect x="42" y="22" width="4" height="6" fill="#f7fbff"/>
  <rect x="32" y="28" width="14" height="4" fill="#f7fbff"/>
  <rect x="32" y="32" width="4" height="4" fill="#f7fbff"/>
  <rect x="32" y="36" width="14" height="4" fill="#f7fbff"/>

  <rect x="52" y="18" width="14" height="4" fill="#f7fbff"/>
  <rect x="62" y="22" width="4" height="4" fill="#f7fbff"/>
  <rect x="52" y="28" width="12" height="4" fill="#f7fbff"/>
  <rect x="62" y="32" width="4" height="4" fill="#f7fbff"/>
  <rect x="52" y="36" width="14" height="4" fill="#f7fbff"/>
</svg>
