<svg xmlns="http://www.w3.org/2000/svg" viewBox="0 0 96 96" shape-rendering="crispEdges" role="img">
  <rect x="0" y="0" width="96" height="96" fill="#1a2138"/>
  <rect x="2" y="2" width="92" height="92" fill="#ac7342"/>
  <rect x="4" y="4" width="88" height="88" fill="#654126"/>
  <rect x="6" y="6" width="84" height="84" fill="#f7be78"/>
  <rect x="6" y="6" width="84" height="6" fill="#ffffff22"/>
  <rect x="6" y="80" width="84" height="6" fill="#00000033"/>
  <rect x="14" y="36" width="68" height="10" fill="#24395e"/>
  <rect x="14" y="54" width="68" height="10" fill="#24395e"/>
  <rect x="14" y="72" width="68" height="10" fill="#24395e"/>
  <rect x="22" y="36" width="2" height="2" fill="#ff8d7b"/>
  <rect x="20" y="38" width="6" height="2" fill="#ff8d7b"/>
  <rect x="18" y="40" width="10" height="2" fill="#ff8d7b"/>
  <rect x="20" y="42" width="6" height="2" fill="#ff8d7b"/>
  <rect x="22" y="44" width="2" height="2" fill="#ff8d7b"/>
  <rect x="28" y="54" width="2" height="2" fill="#ffd86f"/>
  <rect x="26" y="56" width="6" height="2" fill="#ffd86f"/>
  <rect x="24" y="58" width="10" height="2" fill="#ffd86f"/>
  <rect x="26" y="60" width="6" height="2" fill="#ffd86f"/>
  <rect x="28" y="62" width="2" height="2" fill="#ffd86f"/>
  <rect x="22" y="72" width="2" height="2" fill="#7ed386"/>
  <rect x="20" y="74" width="6" height="2" fill="#7ed386"/>
  <rect x="18" y="76" width="10" height="2" fill="#7ed386"/>
  <rect x="20" y="78" width="6" height="2" fill="#7ed386"/>
  <rect x="22" y="80" width="2" height="2" fill="#7ed386"/>
  <rect x="36" y="36" width="2" height="2" fill="#ffd86f"/>
  <rect x="34" y="38" width="6" height="2" fill="#ffd86f"/>
  <rect x="32" y="40" width="10" height="2" fill="#ffd86f"/>
  <rect x="34" y="42" width="6" height="2" fill="#ffd86f"/>
  <rect x="36" y="44" width="2" height="2" fill="#ffd86f"/>
  <rect x="42" y="54" width="2" height="2" fill="#7ed386"/>
  <rect x="40" y="56" width="6" height="2" fill="#7ed386"/>
  <rect x="38" y="58" width="10" height="2" fill="#7ed386"/>
  <rect x="40" y="60" width="6" height="2" fill="#7ed386"/>
  <rect x="42" y="62" width="2" height="2" fill="#7ed386"/>
  <rect x="36" y="72" width="2" height="2" fill="#7ec5ff"/>
  <rect x="34" y="74" width="6" height="2" fill="#7ec5ff"/>
  <rect x="32" y="76" width="10" height="2" fill="#7ec5ff"/>
  <rect x="34" y="78" width="6" height="2" fill="#7ec5ff"/>
  <rect x="36" y="80" width="2" height="2" fill="#7ec5ff"/>
  <rect x="50" y="36" width="2" height="2" fill="#7ed386"/>
  <rect x="48" y="38" width="6" height="2" fill="#7ed386"/>
  <rect x="46" y="40" width="10" height="2" fill="#7ed386"/>
  <rect x="48" y="42" width="6" height="2" fill="#7ed386"/>
  <rect x="50" y="44" width="2" height="2" fill="#7ed386"/>
  <rect x="56" y="54" width="2" height="2" fill="#7ec5ff"/>
  <rect x="54" y="56" width="6" height="2" fill="#7ec5ff"/>
  <rect x="52" y="58" width="10" height="2" fill="#7ec5ff"/>
  <rect x="54" y="60" width="6" height="2" fill="#7ec5ff"/>
  <rect x="56" y="62" width="2" height="2" fill="#7ec5ff"/>
  <rect x="50" y="72" width="2" height="2" fill="#c49bff"/>
  <rect x="48" y="74" width="6" height="2" fill="#c49bff"/>
  <rect x="46" y="76" width="10" height="2" fill="#c49bff"/>
  <rect x="48" y="78" width="6" height="2" fill="#c49bff"/>
  <rect x="50" y="80" width="2" height="2" fill="#c49bff"/>
  <rect x="64" y="36" width="2" height="2" fill="#7ec5ff"/>
  <rect x="62" y="38" width="6" height="2" fill="#7ec5ff"/>
  <rect x="60" y="40" width="10" height="2" fill="#7ec5ff"/>
  <rect x="62" y="42" width="6" height="2" fill="#7ec5ff"/>
  <rect x="64" y="44" width="2" height="2" fill="#7ec5ff"/>
  <rect x="70" y="54" width="2" height="2" fill="#c49bff"/>
  <rect x="68" y="56" width="6" height="2" fill="#c49bff"/>
  <rect x="66" y="58" width="10" height="2" fill="#c49bff"/>
  <rect x="68" y="60" width="6" height="2" fill="#c49bff"/>
  <rect x="70" y="62" width="2" height="2" fill="#c49bff"/>
  <rect x="64" y="72" width="2" height="2" fill="#ff8d7b"/>
  <rect x="62" y="74" width="6" height="2" fill="#ff8d7b"/>
  <rect x="60" y="76" width="10" height="2" fill="#ff8d7b"/>
  <rect x="62" y="78" width="6" height="2" fill="#ff8d7b"/>
  <rect x="64" y="80" width="2" height="2" fill="#ff8d7b"/>
  <rect x="78" y="36" width="2" height="2" fill="#c49bff"/>
  <rect x="76" y="38" width="6" height="2" fill="#c49bff"/>
  <rect x="74" y="40" width="10" height="2" fill="#c49bff"/>
  <rect x="76" y="42" width="6" height="2" fill="#c49bff"/>
  <rect x="78" y="44" width="2" height="2" fill="#c49bff"/>
  <rect x="84" y="54" width="2" height="2" fill="#ff8d7b"/>
  <rect x="82" y="56" width="6" height="2" fill="#ff8d7b"/>
  <rect x="80" y="58" width="10" height="2" fill="#ff8d7b"/>
  <rect x="82" y="60" width="6" height="2" fill="#ff8d7b"/>
  <rect x="84" y="62" width="2" height="2" fill="#ff8d7b"/>
  <rect x="78" y="72" width="2" height="2" fill="#ffd86f"/>
  <rect x="76" y="74" width="6" height="2" fill="#ffd86f"/>
  <rect x="74" y="76" width="10" height="2" fill="#ffd86f"/>
  <rect x="76" y="78" width="6" height="2" fill="#ffd86f"/>
  <rect x="78" y="80" width="2" height="2" fill="#ffd86f"/>
  <rect x="78" y="28" width="4" height="40" fill="#fff2c5"/>
  <rect x="76" y="66" width="2" height="2" fill="#b89337"/>
  <rect x="78" y="66" width="2" height="2" fill="#b89337"/>
  <rect x="80" y="66" width="2" height="2" fill="#b89337"/>
  <rect x="82" y="66" width="2" height="2" fill="#b89337"/>
  <rect x="74" y="68" width="2" height="2" fill="#b89337"/>
  <rect x="76" y="68" width="2" height="2" fill="#b89337"/>
  <rect x="78" y="68" width="2" height="2" fill="#fff2c5"/>
  <rect x="80" y="68" width="2" height="2" fill="#fff2c5"/>
  <rect x="82" y="68" width="2" height="2" fill="#b89337"/>
  <rect x="84" y="68" width="2" height="2" fill="#b89337"/>
  <rect x="74" y="70" width="2" height="2" fill="#b89337"/>
  <rect x="76" y="70" width="2" height="2" fill="#fff2c5"/>
  <rect x="78" y="70" width="2" height="2" fill="#fff2c5"/>
  <rect x="80" y="70" width="2" height="2" fill="#fff2c5"/>
  <rect x="82" y="70" width="2" height="2" fill="#fff2c5"/>
  <rect x="84" y="70" width="2" height="2" fill="#b89337"/>
  <rect x="74" y="72" width="2" height="2" fill="#b89337"/>
  <rect x="76" y="72" width="2" height="2" fill="#fff2c5"/>
  <rect x="78" y="72" width="2" height="2" fill="#fff2c5"/>
  <rect x="80" y="72" width="2" height="2" fill="#fff2c5"/>
  <rect x="82" y="72" width="2" height="2" fill="#fff2c5"/>
  <rect x="84" y="72" width="2" height="2" fill="#b89337"/>
  <rect x="74" y="74" width="2" height="2" fill="#b89337"/>
  <rect x="76" y="74" width="2" height="2" fill="#b89337"/>
  <rect x="78" y="74" width="2" height="2" fill="#fff2c5"/>
  <rect x="80" y="74" width="2" height="2" fill="#fff2c5"/>
  <rect x="82" y="74" width="2" height="2" fill="#b89337"/>
  <rect x="84" y="74" width="2" height="2" fill="#b89337"/>
  <rect x="76" y="76" width="2" height="2" fill="#b89337"/>
  <rect x="78" y="76" width="2" height="2" fill="#b89337"/>
  <rect x="80" y="76" width="2" height="2" fill="#b89337"/>
  <rect x="82" y="76" width="2" height="2" fill="#b89337"/>
</svg>
