<svg xmlns="http://www.w3.org/2000/svg" viewBox="0 0 96 96" shape-rendering="crispEdges" role="img">
  <rect x="0" y="0" width="96" height="96" fill="#1b2238"/>
  <rect x="6" y="6" width="84" height="84" fill="#aa6a39"/>
  <rect x="12" y="12" width="72" height="72" fill="#122038"/>
  <rect x="16" y="16" width="64" height="64" fill="#f4b56c"/>
  <rect x="16" y="16" width="64" height="10" fill="#ffffff33"/>
  <rect x="16" y="70" width="64" height="10" fill="#00000033"/>
  <rect x="28" y="38" width="4" height="4" fill="#1b2238"/>
  <rect x="24" y="34" width="4" height="4" fill="#fff7df"/>
  <rect x="32" y="38" width="4" height="4" fill="#1b2238"/>
  <rect x="28" y="34" width="4" height="4" fill="#fff7df"/>
  <rect x="36" y="38" width="4" height="4" fill="#1b2238"/>
  <rect x="32" y="34" width="4" height="4" fill="#fff7df"/>
  <rect x="40" y="38" width="4" height="4" fill="#1b2238"/>
  <rect x="36" y="34" width="4" height="4" fill="#fff7df"/>
  <rect x="28" y="42" width="4" height="4" fill="#1b2238"/>
  <rect x="24" y="38" width="4" height="4" fill="#fff7df"/>
  <rect x="44" y="42" width="4" height="4" fill="#1b2238"/>
  <rect x="40" y="38" width="4" height="4" fill="#fff7df"/>
  <rect x="28" y="46" width="4" height="4" fill="#1b2238"/>
  <rect x="24" y="42" width="4" height="4" fill="#fff7df"/>
  <rect x="44" y="46" width="4" height="4" fill="#1b2238"/>
  <rect x="40" y="42" width="4" height="4" fill="#fff7df"/>
  <rect x="28" y="50" width="4" height="4" fill="#1b2238"/>
  <rect x="24" y="46" width="4" height="4" fill="#fff7df"/>
  <rect x="32" y="50" width="4" height="4" fill="#1b2238"/>
  <rect x="28" y="46" width="4" height="4" fill="#fff7df"/>
  <rect x="36" y="50" width="4" height="4" fill="#1b2238"/>
  <rect x="32" y="46" width="4" height="4" fill="#fff7df"/>
  <rect x="40" y="50" width="4" height="4" fill="#1b2238"/>
  <rect x="36" y="46" width="4" height="4" fill="#fff7df"/>
  <rect x="28" y="54" width="4" height="4" fill="#1b2238"/>
  <rect x="24" y="50" width="4" height="4" fill="#fff7df"/>
  <rect x="28" y="58" width="4" height="4" fill="#1b2238"/>
  <rect x="24" y="54" width="4" height="4" fill="#fff7df"/>
  <rect x="28" y="62" width="4" height="4" fill="#1b2238"/>
  <rect x="24" y="58" width="4" height="4" fill="#fff7df"/>
  <rect x="54" y="38" width="4" height="4" fill="#1b2238"/>
  <rect x="50" y="34" width="4" height="4" fill="#fff7df"/>
  <rect x="58" y="38" width="4" height="4" fill="#1b2238"/>
  <rect x="54" y="34" width="4" height="4" fill="#fff7df"/>
  <rect x="62" y="38" width="4" height="4" fill="#1b2238"/>
  <rect x="58" y="34" width="4" height="4" fill="#fff7df"/>
  <rect x="66" y="38" width="4" height="4" fill="#1b2238"/>
  <rect x="62" y="34" width="4" height="4" fill="#fff7df"/>
  <rect x="54" y="42" width="4" height="4" fill="#1b2238"/>
  <rect x="50" y="38" width="4" height="4" fill="#fff7df"/>
  <rect x="70" y="42" width="4" height="4" fill="#1b2238"/>
  <rect x="66" y="38" width="4" height="4" fill="#fff7df"/>
  <rect x="54" y="46" width="4" height="4" fill="#1b2238"/>
  <rect x="50" y="42" width="4" height="4" fill="#fff7df"/>
  <rect x="70" y="46" width="4" height="4" fill="#1b2238"/>
  <rect x="66" y="42" width="4" height="4" fill="#fff7df"/>
  <rect x="54" y="50" width="4" height="4" fill="#1b2238"/>
  <rect x="50" y="46" width="4" height="4" fill="#fff7df"/>
  <rect x="58" y="50" width="4" height="4" fill="#1b2238"/>
  <rect x="54" y="46" width="4" height="4" fill="#fff7df"/>
  <rect x="62" y="50" width="4" height="4" fill="#1b2238"/>
  <rect x="58" y="46" width="4" height="4" fill="#fff7df"/>
  <rect x="66" y="50" width="4" height="4" fill="#1b2238"/>
  <rect x="62" y="46" width="4" height="4" fill="#fff7df"/>
  <rect x="54" y="54" width="4" height="4" fill="#1b2238"/>
  <rect x="50" y="50" width="4" height="4" fill="#fff7df"/>
  <rect x="66" y="54" width="4" height="4" fill="#1b2238"/>
  <rect x="62" y="50" width="4" height="4" fill="#fff7df"/>
  <rect x="54" y="58" width="4" height="4" fill="#1b2238"/>
  <rect x="50" y="54" width="4" height="4" fill="#fff7df"/>
  <rect x="70" y="58" width="4" height="4" fill="#1b2238"/>
  <rect x="66" y="54" width="4" height="4" fill="#fff7df"/>
  <rect x="54" y="62" width="4" height="4" fill="#1b2238"/>
  <rect x="50" y="58" width="4" height="4" fill="#fff7df"/>
  <rect x="70" y="62" width="4" height="4" fill="#1b2238"/>
  <rect x="66" y="58" width="4" height="4" fill="#fff7df"/>
</svg>
