<svg xmlns="http://www.w3.org/2000/svg" viewBox="0 0 96 96" shape-rendering="crispEdges" role="img">
  <rect x="0" y="0" width="96" height="96" fill="#1a2138"/>
  <rect x="2" y="2" width="92" height="92" fill="#a24f6f"/>
  <rect x="4" y="4" width="88" height="88" fill="#5f3044"/>
  <rect x="6" y="6" width="84" height="84" fill="#ffb2cd"/>
  <rect x="6" y="6" width="84" height="6" fill="#ffffff22"/>
  <rect x="6" y="80" width="84" height="6" fill="#00000033"/>
  <rect x="18" y="42" width="20" height="24" fill="#355684"/>
  <rect x="22" y="46" width="12" height="16" fill="#9ec7ff"/>
  <rect x="38" y="48" width="6" height="4" fill="#355684"/>
  <rect x="44" y="46" width="4" height="8" fill="#6f97d2"/>
  <rect x="56" y="26" width="2" height="2" fill="#b58429"/>
  <rect x="58" y="26" width="2" height="2" fill="#b58429"/>
  <rect x="60" y="26" width="2" height="2" fill="#b58429"/>
  <rect x="62" y="26" width="2" height="2" fill="#b58429"/>
  <rect x="54" y="28" width="2" height="2" fill="#b58429"/>
  <rect x="56" y="28" width="2" height="2" fill="#b58429"/>
  <rect x="58" y="28" width="2" height="2" fill="#ffd56f"/>
  <rect x="60" y="28" width="2" height="2" fill="#ffd56f"/>
  <rect x="62" y="28" width="2" height="2" fill="#b58429"/>
  <rect x="64" y="28" width="2" height="2" fill="#b58429"/>
  <rect x="52" y="30" width="2" height="2" fill="#b58429"/>
  <rect x="54" y="30" width="2" height="2" fill="#b58429"/>
  <rect x="56" y="30" width="2" height="2" fill="#fff2b8"/>
  <rect x="58" y="30" width="2" height="2" fill="#fff2b8"/>
  <rect x="60" y="30" width="2" height="2" fill="#ffd56f"/>
  <rect x="62" y="30" width="2" height="2" fill="#ffd56f"/>
  <rect x="64" y="30" width="2" height="2" fill="#b58429"/>
  <rect x="66" y="30" width="2" height="2" fill="#b58429"/>
  <rect x="52" y="32" width="2" height="2" fill="#b58429"/>
  <rect x="54" y="32" width="2" height="2" fill="#ffd56f"/>
  <rect x="56" y="32" width="2" height="2" fill="#fff2b8"/>
  <rect x="58" y="32" width="2" height="2" fill="#fff2b8"/>
  <rect x="60" y="32" width="2" height="2" fill="#ffd56f"/>
  <rect x="62" y="32" width="2" height="2" fill="#ffd56f"/>
  <rect x="64" y="32" width="2" height="2" fill="#ffd56f"/>
  <rect x="66" y="32" width="2" height="2" fill="#b58429"/>
  <rect x="52" y="34" width="2" height="2" fill="#b58429"/>
  <rect x="54" y="34" width="2" height="2" fill="#ffd56f"/>
  <rect x="56" y="34" width="2" height="2" fill="#ffd56f"/>
  <rect x="58" y="34" width="2" height="2" fill="#ffd56f"/>
  <rect x="60" y="34" width="2" height="2" fill="#ffd56f"/>
  <rect x="62" y="34" width="2" height="2" fill="#ffd56f"/>
  <rect x="64" y="34" width="2" height="2" fill="#ffd56f"/>
  <rect x="66" y="34" width="2" height="2" fill="#b58429"/>
  <rect x="52" y="36" width="2" height="2" fill="#b58429"/>
  <rect x="54" y="36" width="2" height="2" fill="#b58429"/>
  <rect x="56" y="36" width="2" height="2" fill="#ffd56f"/>
  <rect x="58" y="36" width="2" height="2" fill="#ffd56f"/>
  <rect x="60" y="36" width="2" height="2" fill="#ffd56f"/>
  <rect x="62" y="36" width="2" height="2" fill="#ffd56f"/>
  <rect x="64" y="36" width="2" height="2" fill="#b58429"/>
  <rect x="66" y="36" width="2" height="2" fill="#b58429"/>
  <rect x="54" y="38" width="2" height="2" fill="#b58429"/>
  <rect x="56" y="38" width="2" height="2" fill="#b58429"/>
  <rect x="58" y="38" width="2" height="2" fill="#ffd56f"/>
  <rect x="60" y="38" width="2" height="2" fill="#ffd56f"/>
  <rect x="62" y="38" width="2" height="2" fill="#b58429"/>
  <rect x="64" y="38" width="2" height="2" fill="#b58429"/>
  <rect x="56" y="40" width="2" height="2" fill="#b58429"/>
  <rect x="58" y="40" width="2" height="2" fill="#b58429"/>
  <rect x="60" y="40" width="2" height="2" fill="#b58429"/>
  <rect x="62" y="40" width="2" height="2" fill="#b58429"/>
  <rect x="68" y="40" width="2" height="2" fill="#488cb7"/>
  <rect x="70" y="40" width="2" height="2" fill="#488cb7"/>
  <rect x="64" y="42" width="2" height="2" fill="#488cb7"/>
  <rect x="66" y="42" width="2" height="2" fill="#488cb7"/>
  <rect x="68" y="42" width="2" height="2" fill="#488cb7"/>
  <rect x="70" y="42" width="2" height="2" fill="#488cb7"/>
  <rect x="72" y="42" width="2" height="2" fill="#488cb7"/>
  <rect x="74" y="42" width="2" height="2" fill="#488cb7"/>
  <rect x="64" y="44" width="2" height="2" fill="#488cb7"/>
  <rect x="66" y="44" width="2" height="2" fill="#8ed6ff"/>
  <rect x="68" y="44" width="2" height="2" fill="#cef0ff"/>
  <rect x="70" y="44" width="2" height="2" fill="#8ed6ff"/>
  <rect x="72" y="44" width="2" height="2" fill="#8ed6ff"/>
  <rect x="74" y="44" width="2" height="2" fill="#488cb7"/>
  <rect x="62" y="46" width="2" height="2" fill="#488cb7"/>
  <rect x="64" y="46" width="2" height="2" fill="#488cb7"/>
  <rect x="66" y="46" width="2" height="2" fill="#cef0ff"/>
  <rect x="68" y="46" width="2" height="2" fill="#cef0ff"/>
  <rect x="70" y="46" width="2" height="2" fill="#8ed6ff"/>
  <rect x="72" y="46" width="2" height="2" fill="#8ed6ff"/>
  <rect x="74" y="46" width="2" height="2" fill="#488cb7"/>
  <rect x="76" y="46" width="2" height="2" fill="#488cb7"/>
  <rect x="62" y="48" width="2" height="2" fill="#488cb7"/>
  <rect x="64" y="48" width="2" height="2" fill="#488cb7"/>
  <rect x="66" y="48" width="2" height="2" fill="#8ed6ff"/>
  <rect x="68" y="48" width="2" height="2" fill="#8ed6ff"/>
  <rect x="70" y="48" width="2" height="2" fill="#8ed6ff"/>
  <rect x="72" y="48" width="2" height="2" fill="#8ed6ff"/>
  <rect x="74" y="48" width="2" height="2" fill="#488cb7"/>
  <rect x="76" y="48" width="2" height="2" fill="#488cb7"/>
  <rect x="64" y="50" width="2" height="2" fill="#488cb7"/>
  <rect x="66" y="50" width="2" height="2" fill="#8ed6ff"/>
  <rect x="68" y="50" width="2" height="2" fill="#8ed6ff"/>
  <rect x="70" y="50" width="2" height="2" fill="#8ed6ff"/>
  <rect x="72" y="50" width="2" height="2" fill="#8ed6ff"/>
  <rect x="74" y="50" width="2" height="2" fill="#488cb7"/>
  <rect x="64" y="52" width="2" height="2" fill="#488cb7"/>
  <rect x="66" y="52" width="2" height="2" fill="#488cb7"/>
  <rect x="68" y="52" width="2" height="2" fill="#488cb7"/>
  <rect x="70" y="52" width="2" height="2" fill="#488cb7"/>
  <rect x="72" y="52" width="2" height="2" fill="#488cb7"/>
  <rect x="74" y="52" width="2" height="2" fill="#488cb7"/>
  <rect x="68" y="54" width="2" height="2" fill="#488cb7"/>
  <rect x="70" y="54" width="2" height="2" fill="#488cb7"/>
  <rect x="64" y="56" width="2" height="2" fill="#a64f70"/>
  <rect x="66" y="56" width="2" height="2" fill="#a64f70"/>
  <rect x="68" y="56" width="2" height="2" fill="#a64f70"/>
  <rect x="70" y="56" width="2" height="2" fill="#a64f70"/>
  <rect x="62" y="58" width="2" height="2" fill="#a64f70"/>
  <rect x="64" y="58" width="2" height="2" fill="#ff9fc8"/>
  <rect x="66" y="58" width="2" height="2" fill="#ffd1e5"/>
  <rect x="68" y="58" width="2" height="2" fill="#ff9fc8"/>
  <rect x="70" y="58" width="2" height="2" fill="#ff9fc8"/>
  <rect x="72" y="58" width="2" height="2" fill="#a64f70"/>
  <rect x="60" y="60" width="2" height="2" fill="#a64f70"/>
  <rect x="62" y="60" width="2" height="2" fill="#ff9fc8"/>
  <rect x="64" y="60" width="2" height="2" fill="#ffd1e5"/>
  <rect x="66" y="60" width="2" height="2" fill="#ffd1e5"/>
  <rect x="68" y="60" width="2" height="2" fill="#ff9fc8"/>
  <rect x="70" y="60" width="2" height="2" fill="#ff9fc8"/>
  <rect x="72" y="60" width="2" height="2" fill="#ff9fc8"/>
  <rect x="74" y="60" width="2" height="2" fill="#a64f70"/>
  <rect x="60" y="62" width="2" height="2" fill="#a64f70"/>
  <rect x="62" y="62" width="2" height="2" fill="#ffd1e5"/>
  <rect x="64" y="62" width="2" height="2" fill="#ffd1e5"/>
  <rect x="66" y="62" width="2" height="2" fill="#ffd1e5"/>
  <rect x="68" y="62" width="2" height="2" fill="#ff9fc8"/>
  <rect x="70" y="62" width="2" height="2" fill="#ff9fc8"/>
  <rect x="72" y="62" width="2" height="2" fill="#ff9fc8"/>
  <rect x="74" y="62" width="2" height="2" fill="#a64f70"/>
  <rect x="60" y="64" width="2" height="2" fill="#a64f70"/>
  <rect x="62" y="64" width="2" height="2" fill="#ff9fc8"/>
  <rect x="64" y="64" width="2" height="2" fill="#ff9fc8"/>
  <rect x="66" y="64" width="2" height="2" fill="#ff9fc8"/>
  <rect x="68" y="64" width="2" height="2" fill="#ff9fc8"/>
  <rect x="70" y="64" width="2" height="2" fill="#ff9fc8"/>
  <rect x="72" y="64" width="2" height="2" fill="#ff9fc8"/>
  <rect x="74" y="64" width="2" height="2" fill="#a64f70"/>
  <rect x="60" y="66" width="2" height="2" fill="#a64f70"/>
  <rect x="62" y="66" width="2" height="2" fill="#ff9fc8"/>
  <rect x="64" y="66" width="2" height="2" fill="#ff9fc8"/>
  <rect x="66" y="66" width="2" height="2" fill="#ff9fc8"/>
  <rect x="68" y="66" width="2" height="2" fill="#ff9fc8"/>
  <rect x="70" y="66" width="2" height="2" fill="#ff9fc8"/>
  <rect x="72" y="66" width="2" height="2" fill="#ff9fc8"/>
  <rect x="74" y="66" width="2" height="2" fill="#a64f70"/>
  <rect x="62" y="68" width="2" height="2" fill="#a64f70"/>
  <rect x="64" y="68" width="2" height="2" fill="#ff9fc8"/>
  <rect x="66" y="68" width="2" height="2" fill="#ff9fc8"/>
  <rect x="68" y="68" width="2" height="2" fill="#ff9fc8"/>
  <rect x="70" y="68" width="2" height="2" fill="#ff9fc8"/>
  <rect x="72" y="68" width="2" height="2" fill="#a64f70"/>
  <rect x="64" y="70" width="2" height="2" fill="#a64f70"/>
  <rect x="66" y="70" width="2" height="2" fill="#a64f70"/>
  <rect x="68" y="70" width="2" height="2" fill="#a64f70"/>
  <rect x="70" y="70" width="2" height="2" fill="#a64f70"/>
  <rect x="58" y="30" width="2" height="2" fill="#203557"/>
  <rect x="60" y="30" width="2" height="2" fill="#203557"/>
  <rect x="62" y="30" width="2" height="2" fill="#203557"/>
  <rect x="64" y="30" width="2" height="2" fill="#203557"/>
  <rect x="58" y="32" width="2" height="2" fill="#203557"/>
  <rect x="66" y="32" width="2" height="2" fill="#203557"/>
  <rect x="58" y="34" width="2" height="2" fill="#203557"/>
  <rect x="66" y="34" width="2" height="2" fill="#203557"/>
  <rect x="58" y="36" width="2" height="2" fill="#203557"/>
  <rect x="60" y="36" width="2" height="2" fill="#203557"/>
  <rect x="62" y="36" width="2" height="2" fill="#203557"/>
  <rect x="64" y="36" width="2" height="2" fill="#203557"/>
  <rect x="58" y="38" width="2" height="2" fill="#203557"/>
  <rect x="58" y="40" width="2" height="2" fill="#203557"/>
  <rect x="58" y="42" width="2" height="2" fill="#203557"/>
  <rect x="70" y="44" width="2" height="2" fill="#22435b"/>
  <rect x="72" y="44" width="2" height="2" fill="#22435b"/>
  <rect x="74" y="44" width="2" height="2" fill="#22435b"/>
  <rect x="68" y="46" width="2" height="2" fill="#22435b"/>
  <rect x="76" y="46" width="2" height="2" fill="#22435b"/>
  <rect x="68" y="48" width="2" height="2" fill="#22435b"/>
  <rect x="76" y="48" width="2" height="2" fill="#22435b"/>
  <rect x="68" y="50" width="2" height="2" fill="#22435b"/>
  <rect x="76" y="50" width="2" height="2" fill="#22435b"/>
  <rect x="68" y="52" width="2" height="2" fill="#22435b"/>
  <rect x="76" y="52" width="2" height="2" fill="#22435b"/>
  <rect x="68" y="54" width="2" height="2" fill="#22435b"/>
  <rect x="76" y="54" width="2" height="2" fill="#22435b"/>
  <rect x="70" y="56" width="2" height="2" fill="#22435b"/>
  <rect x="72" y="56" width="2" height="2" fill="#22435b"/>
  <rect x="74" y="56" width="2" height="2" fill="#22435b"/>
  <rect x="66" y="60" width="2" height="2" fill="#5f2940"/>
  <rect x="68" y="60" width="2" height="2" fill="#5f2940"/>
  <rect x="70" y="60" width="2" height="2" fill="#5f2940"/>
  <rect x="72" y="60" width="2" height="2" fill="#5f2940"/>
  <rect x="66" y="62" width="2" height="2" fill="#5f2940"/>
  <rect x="74" y="62" width="2" height="2" fill="#5f2940"/>
  <rect x="66" y="64" width="2" height="2" fill="#5f2940"/>
  <rect x="74" y="64" width="2" height="2" fill="#5f2940"/>
  <rect x="66" y="66" width="2" height="2" fill="#5f2940"/>
  <rect x="68" y="66" width="2" height="2" fill="#5f2940"/>
  <rect x="70" y="66" width="2" height="2" fill="#5f2940"/>
  <rect x="72" y="66" width="2" height="2" fill="#5f2940"/>
  <rect x="66" y="68" width="2" height="2" fill="#5f2940"/>
  <rect x="66" y="70" width="2" height="2" fill="#5f2940"/>
  <rect x="66" y="72" width="2" height="2" fill="#5f2940"/>
</svg>
