<svg xmlns="http://www.w3.org/2000/svg" viewBox="0 0 96 96" shape-rendering="crispEdges" role="img">
  <rect x="0" y="0" width="96" height="96" fill="#1a2138"/>
  <rect x="2" y="2" width="92" height="92" fill="#7254a9"/>
  <rect x="4" y="4" width="88" height="88" fill="#3f2d63"/>
  <rect x="6" y="6" width="84" height="84" fill="#c8a5ff"/>
  <rect x="6" y="6" width="84" height="6" fill="#ffffff22"/>
  <rect x="6" y="80" width="84" height="6" fill="#00000033"/>
  <rect x="20" y="60" width="20" height="20" fill="#6fa8ff"/>
  <rect x="20" y="60" width="20" height="2" fill="#d6e6ff"/>
  <rect x="20" y="78" width="20" height="2" fill="#285992"/>
  <rect x="46" y="80" width="2" height="2" fill="#ffb86d"/>
  <rect x="46" y="78" width="2" height="2" fill="#ffb86d"/>
  <rect x="44" y="76" width="4" height="2" fill="#ffb86d"/>
  <rect x="44" y="74" width="6" height="2" fill="#ffb86d"/>
  <rect x="42" y="72" width="8" height="2" fill="#ffb86d"/>
  <rect x="42" y="70" width="10" height="2" fill="#ffb86d"/>
  <rect x="40" y="68" width="12" height="2" fill="#ffb86d"/>
  <rect x="40" y="66" width="14" height="2" fill="#ffb86d"/>
  <rect x="38" y="64" width="16" height="2" fill="#ffb86d"/>
  <rect x="38" y="62" width="18" height="2" fill="#ffb86d"/>
  <rect x="60" y="58" width="2" height="2" fill="#4a8f4a"/>
  <rect x="62" y="58" width="2" height="2" fill="#4a8f4a"/>
  <rect x="64" y="58" width="2" height="2" fill="#4a8f4a"/>
  <rect x="66" y="58" width="2" height="2" fill="#4a8f4a"/>
  <rect x="56" y="60" width="2" height="2" fill="#4a8f4a"/>
  <rect x="58" y="60" width="2" height="2" fill="#4a8f4a"/>
  <rect x="60" y="60" width="2" height="2" fill="#4a8f4a"/>
  <rect x="62" y="60" width="2" height="2" fill="#8edc8f"/>
  <rect x="64" y="60" width="2" height="2" fill="#8edc8f"/>
  <rect x="66" y="60" width="2" height="2" fill="#4a8f4a"/>
  <rect x="68" y="60" width="2" height="2" fill="#4a8f4a"/>
  <rect x="70" y="60" width="2" height="2" fill="#4a8f4a"/>
  <rect x="56" y="62" width="2" height="2" fill="#4a8f4a"/>
  <rect x="58" y="62" width="2" height="2" fill="#8edc8f"/>
  <rect x="60" y="62" width="2" height="2" fill="#caf0c9"/>
  <rect x="62" y="62" width="2" height="2" fill="#caf0c9"/>
  <rect x="64" y="62" width="2" height="2" fill="#8edc8f"/>
  <rect x="66" y="62" width="2" height="2" fill="#8edc8f"/>
  <rect x="68" y="62" width="2" height="2" fill="#8edc8f"/>
  <rect x="70" y="62" width="2" height="2" fill="#4a8f4a"/>
  <rect x="54" y="64" width="2" height="2" fill="#4a8f4a"/>
  <rect x="56" y="64" width="2" height="2" fill="#4a8f4a"/>
  <rect x="58" y="64" width="2" height="2" fill="#caf0c9"/>
  <rect x="60" y="64" width="2" height="2" fill="#caf0c9"/>
  <rect x="62" y="64" width="2" height="2" fill="#caf0c9"/>
  <rect x="64" y="64" width="2" height="2" fill="#8edc8f"/>
  <rect x="66" y="64" width="2" height="2" fill="#8edc8f"/>
  <rect x="68" y="64" width="2" height="2" fill="#8edc8f"/>
  <rect x="70" y="64" width="2" height="2" fill="#4a8f4a"/>
  <rect x="72" y="64" width="2" height="2" fill="#4a8f4a"/>
  <rect x="54" y="66" width="2" height="2" fill="#4a8f4a"/>
  <rect x="56" y="66" width="2" height="2" fill="#8edc8f"/>
  <rect x="58" y="66" width="2" height="2" fill="#caf0c9"/>
  <rect x="60" y="66" width="2" height="2" fill="#caf0c9"/>
  <rect x="62" y="66" width="2" height="2" fill="#caf0c9"/>
  <rect x="64" y="66" width="2" height="2" fill="#8edc8f"/>
  <rect x="66" y="66" width="2" height="2" fill="#8edc8f"/>
  <rect x="68" y="66" width="2" height="2" fill="#8edc8f"/>
  <rect x="70" y="66" width="2" height="2" fill="#8edc8f"/>
  <rect x="72" y="66" width="2" height="2" fill="#4a8f4a"/>
  <rect x="54" y="68" width="2" height="2" fill="#4a8f4a"/>
  <rect x="56" y="68" width="2" height="2" fill="#8edc8f"/>
  <rect x="58" y="68" width="2" height="2" fill="#8edc8f"/>
  <rect x="60" y="68" width="2" height="2" fill="#8edc8f"/>
  <rect x="62" y="68" width="2" height="2" fill="#8edc8f"/>
  <rect x="64" y="68" width="2" height="2" fill="#8edc8f"/>
  <rect x="66" y="68" width="2" height="2" fill="#8edc8f"/>
  <rect x="68" y="68" width="2" height="2" fill="#8edc8f"/>
  <rect x="70" y="68" width="2" height="2" fill="#8edc8f"/>
  <rect x="72" y="68" width="2" height="2" fill="#4a8f4a"/>
  <rect x="54" y="70" width="2" height="2" fill="#4a8f4a"/>
  <rect x="56" y="70" width="2" height="2" fill="#4a8f4a"/>
  <rect x="58" y="70" width="2" height="2" fill="#8edc8f"/>
  <rect x="60" y="70" width="2" height="2" fill="#8edc8f"/>
  <rect x="62" y="70" width="2" height="2" fill="#8edc8f"/>
  <rect x="64" y="70" width="2" height="2" fill="#8edc8f"/>
  <rect x="66" y="70" width="2" height="2" fill="#8edc8f"/>
  <rect x="68" y="70" width="2" height="2" fill="#8edc8f"/>
  <rect x="70" y="70" width="2" height="2" fill="#4a8f4a"/>
  <rect x="72" y="70" width="2" height="2" fill="#4a8f4a"/>
  <rect x="56" y="72" width="2" height="2" fill="#4a8f4a"/>
  <rect x="58" y="72" width="2" height="2" fill="#8edc8f"/>
  <rect x="60" y="72" width="2" height="2" fill="#8edc8f"/>
  <rect x="62" y="72" width="2" height="2" fill="#8edc8f"/>
  <rect x="64" y="72" width="2" height="2" fill="#8edc8f"/>
  <rect x="66" y="72" width="2" height="2" fill="#8edc8f"/>
  <rect x="68" y="72" width="2" height="2" fill="#8edc8f"/>
  <rect x="70" y="72" width="2" height="2" fill="#4a8f4a"/>
  <rect x="56" y="74" width="2" height="2" fill="#4a8f4a"/>
  <rect x="58" y="74" width="2" height="2" fill="#4a8f4a"/>
  <rect x="60" y="74" width="2" height="2" fill="#4a8f4a"/>
  <rect x="62" y="74" width="2" height="2" fill="#8edc8f"/>
  <rect x="64" y="74" width="2" height="2" fill="#8edc8f"/>
  <rect x="66" y="74" width="2" height="2" fill="#4a8f4a"/>
  <rect x="68" y="74" width="2" height="2" fill="#4a8f4a"/>
  <rect x="70" y="74" width="2" height="2" fill="#4a8f4a"/>
  <rect x="60" y="76" width="2" height="2" fill="#4a8f4a"/>
  <rect x="62" y="76" width="2" height="2" fill="#4a8f4a"/>
  <rect x="64" y="76" width="2" height="2" fill="#4a8f4a"/>
  <rect x="66" y="76" width="2" height="2" fill="#4a8f4a"/>
  <rect x="28" y="44" width="16" height="8" fill="#ff7f7f"/>
  <rect x="48" y="44" width="16" height="8" fill="#9d8bff"/>
  <rect x="68" y="44" width="16" height="8" fill="#6fd7e9"/>
</svg>
