<svg xmlns="http://www.w3.org/2000/svg" viewBox="0 0 96 96" shape-rendering="crispEdges" role="img">
  <rect x="0" y="0" width="96" height="96" fill="#1a2138"/>
  <rect x="2" y="2" width="92" height="92" fill="#5269a6"/>
  <rect x="4" y="4" width="88" height="88" fill="#2d3d66"/>
  <rect x="6" y="6" width="84" height="84" fill="#adc3ff"/>
  <rect x="6" y="6" width="84" height="6" fill="#ffffff22"/>
  <rect x="6" y="80" width="84" height="6" fill="#00000033"/>
  <rect x="22" y="26" width="24" height="30" fill="#f7f4ed"/>
  <rect x="26" y="32" width="16" height="2" fill="#4a5f8a"/>
  <rect x="26" y="38" width="16" height="2" fill="#4a5f8a"/>
  <rect x="26" y="44" width="12" height="2" fill="#4a5f8a"/>
  <rect x="50" y="40" width="24" height="30" fill="#fffaf2"/>
  <rect x="54" y="46" width="16" height="2" fill="#4a5f8a"/>
  <rect x="54" y="52" width="16" height="2" fill="#4a5f8a"/>
  <rect x="60" y="60" width="6" height="6" fill="#7cc287"/>
  <rect x="28" y="62" width="4" height="4" fill="#ff9a7a"/>
  <rect x="32" y="66" width="4" height="4" fill="#ff9a7a"/>
  <rect x="36" y="62" width="4" height="4" fill="#ff9a7a"/>
</svg>
