<svg xmlns="http://www.w3.org/2000/svg" viewBox="0 0 24 24" shape-rendering="crispEdges" role="img">
  <rect x="0" y="0" width="24" height="24" fill="transparent"/>
  <rect x="2" y="2" width="20" height="20" fill="#2f3e60"/>
  <rect x="4" y="4" width="16" height="16" fill="#9fc4ff"/>
  <rect x="7" y="7" width="1" height="1" fill="#1b2747"/>
  <rect x="8" y="7" width="1" height="1" fill="#1b2747"/>
  <rect x="9" y="7" width="1" height="1" fill="#1b2747"/>
  <rect x="10" y="7" width="1" height="1" fill="#1b2747"/>
  <rect x="6" y="8" width="1" height="1" fill="#1b2747"/>
  <rect x="6" y="9" width="1" height="1" fill="#1b2747"/>
  <rect x="6" y="10" width="1" height="1" fill="#1b2747"/>
  <rect x="9" y="10" width="1" height="1" fill="#1b2747"/>
  <rect x="10" y="10" width="1" height="1" fill="#1b2747"/>
  <rect x="6" y="11" width="1" height="1" fill="#1b2747"/>
  <rect x="10" y="11" width="1" height="1" fill="#1b2747"/>
  <rect x="6" y="12" width="1" height="1" fill="#1b2747"/>
  <rect x="10" y="12" width="1" height="1" fill="#1b2747"/>
  <rect x="7" y="13" width="1" height="1" fill="#1b2747"/>
  <rect x="8" y="13" width="1" height="1" fill="#1b2747"/>
  <rect x="9" y="13" width="1" height="1" fill="#1b2747"/>
  <rect x="13" y="7" width="1" height="1" fill="#1b2747"/>
  <rect x="17" y="7" width="1" height="1" fill="#1b2747"/>
  <rect x="13" y="8" width="1" height="1" fill="#1b2747"/>
  <rect x="17" y="8" width="1" height="1" fill="#1b2747"/>
  <rect x="13" y="9" width="1" height="1" fill="#1b2747"/>
  <rect x="17" y="9" width="1" height="1" fill="#1b2747"/>
  <rect x="13" y="10" width="1" height="1" fill="#1b2747"/>
  <rect x="14" y="10" width="1" height="1" fill="#1b2747"/>
  <rect x="15" y="10" width="1" height="1" fill="#1b2747"/>
  <rect x="16" y="10" width="1" height="1" fill="#1b2747"/>
  <rect x="17" y="10" width="1" height="1" fill="#1b2747"/>
  <rect x="13" y="11" width="1" height="1" fill="#1b2747"/>
  <rect x="17" y="11" width="1" height="1" fill="#1b2747"/>
  <rect x="13" y="12" width="1" height="1" fill="#1b2747"/>
  <rect x="17" y="12" width="1" height="1" fill="#1b2747"/>
  <rect x="13" y="13" width="1" height="1" fill="#1b2747"/>
  <rect x="17" y="13" width="1" height="1" fill="#1b2747"/>
</svg>
