<svg xmlns="http://www.w3.org/2000/svg" viewBox="0 0 24 24" shape-rendering="crispEdges" role="img">
  <rect x="1" y="1" width="22" height="22" fill="#2a3d61"/>
  <rect x="3" y="3" width="18" height="18" fill="#a8c9ff"/>
  <rect x="7" y="8" width="1" height="1" fill="#1a2746"/>
  <rect x="8" y="8" width="1" height="1" fill="#1a2746"/>
  <rect x="9" y="8" width="1" height="1" fill="#1a2746"/>
  <rect x="10" y="8" width="1" height="1" fill="#1a2746"/>
  <rect x="6" y="9" width="1" height="1" fill="#1a2746"/>
  <rect x="6" y="10" width="1" height="1" fill="#1a2746"/>
  <rect x="6" y="11" width="1" height="1" fill="#1a2746"/>
  <rect x="9" y="11" width="1" height="1" fill="#1a2746"/>
  <rect x="10" y="11" width="1" height="1" fill="#1a2746"/>
  <rect x="6" y="12" width="1" height="1" fill="#1a2746"/>
  <rect x="10" y="12" width="1" height="1" fill="#1a2746"/>
  <rect x="6" y="13" width="1" height="1" fill="#1a2746"/>
  <rect x="10" y="13" width="1" height="1" fill="#1a2746"/>
  <rect x="7" y="14" width="1" height="1" fill="#1a2746"/>
  <rect x="8" y="14" width="1" height="1" fill="#1a2746"/>
  <rect x="9" y="14" width="1" height="1" fill="#1a2746"/>
  <rect x="13" y="8" width="1" height="1" fill="#1a2746"/>
  <rect x="17" y="8" width="1" height="1" fill="#1a2746"/>
  <rect x="13" y="9" width="1" height="1" fill="#1a2746"/>
  <rect x="17" y="9" width="1" height="1" fill="#1a2746"/>
  <rect x="13" y="10" width="1" height="1" fill="#1a2746"/>
  <rect x="17" y="10" width="1" height="1" fill="#1a2746"/>
  <rect x="13" y="11" width="1" height="1" fill="#1a2746"/>
  <rect x="14" y="11" width="1" height="1" fill="#1a2746"/>
  <rect x="15" y="11" width="1" height="1" fill="#1a2746"/>
  <rect x="16" y="11" width="1" height="1" fill="#1a2746"/>
  <rect x="17" y="11" width="1" height="1" fill="#1a2746"/>
  <rect x="13" y="12" width="1" height="1" fill="#1a2746"/>
  <rect x="17" y="12" width="1" height="1" fill="#1a2746"/>
  <rect x="13" y="13" width="1" height="1" fill="#1a2746"/>
  <rect x="17" y="13" width="1" height="1" fill="#1a2746"/>
  <rect x="13" y="14" width="1" height="1" fill="#1a2746"/>
  <rect x="17" y="14" width="1" height="1" fill="#1a2746"/>
</svg>
